<?xml version="1.0" encoding="utf-8" standalone="no"?>
<!DOCTYPE svg PUBLIC "-//W3C//DTD SVG 1.1//EN"
  "http://www.w3.org/Graphics/SVG/1.1/DTD/svg11.dtd">
<!-- Created with matplotlib (https://matplotlib.org/) -->
<svg height="720pt" version="1.1" viewBox="0 0 1080 720" width="1080pt" xmlns="http://www.w3.org/2000/svg" xmlns:xlink="http://www.w3.org/1999/xlink">
 <defs>
  <style type="text/css">
*{stroke-linecap:butt;stroke-linejoin:round;}
  </style>
 </defs>
 <g id="figure_1">
  <g id="patch_1">
   <path d="M 0 720 
L 1080 720 
L 1080 0 
L 0 0 
z
" style="fill:#ffffff;"/>
  </g>
  <g id="axes_1">
   <g id="patch_2">
    <path d="M 135 640.8 
L 972 640.8 
L 972 86.4 
L 135 86.4 
z
" style="fill:#e5e5e5;"/>
   </g>
   <g id="matplotlib.axis_1">
    <g id="xtick_1">
     <g id="line2d_1">
      <path clip-path="url(#p26c0d4d60e)" d="M 173.045455 640.8 
L 173.045455 86.4 
" style="fill:none;stroke:#ffffff;stroke-linecap:square;stroke-width:0.8;"/>
     </g>
     <g id="line2d_2">
      <defs>
       <path d="M 0 0 
L 0 3.5 
" id="m56a37d3de8" style="stroke:#555555;stroke-width:0.8;"/>
      </defs>
      <g>
       <use style="fill:#555555;stroke:#555555;stroke-width:0.8;" x="173.045455" xlink:href="#m56a37d3de8" y="640.8"/>
      </g>
     </g>
     <g id="text_1">
      <!-- 0.000 -->
      <defs>
       <path d="M 31.78125 66.40625 
Q 24.171875 66.40625 20.328125 58.90625 
Q 16.5 51.421875 16.5 36.375 
Q 16.5 21.390625 20.328125 13.890625 
Q 24.171875 6.390625 31.78125 6.390625 
Q 39.453125 6.390625 43.28125 13.890625 
Q 47.125 21.390625 47.125 36.375 
Q 47.125 51.421875 43.28125 58.90625 
Q 39.453125 66.40625 31.78125 66.40625 
z
M 31.78125 74.21875 
Q 44.046875 74.21875 50.515625 64.515625 
Q 56.984375 54.828125 56.984375 36.375 
Q 56.984375 17.96875 50.515625 8.265625 
Q 44.046875 -1.421875 31.78125 -1.421875 
Q 19.53125 -1.421875 13.0625 8.265625 
Q 6.59375 17.96875 6.59375 36.375 
Q 6.59375 54.828125 13.0625 64.515625 
Q 19.53125 74.21875 31.78125 74.21875 
z
" id="DejaVuSans-48"/>
       <path d="M 10.6875 12.40625 
L 21 12.40625 
L 21 0 
L 10.6875 0 
z
" id="DejaVuSans-46"/>
      </defs>
      <g style="fill:#555555;" transform="translate(158.731392 655.398438)scale(0.1 -0.1)">
       <use xlink:href="#DejaVuSans-48"/>
       <use x="63.623047" xlink:href="#DejaVuSans-46"/>
       <use x="95.410156" xlink:href="#DejaVuSans-48"/>
       <use x="159.033203" xlink:href="#DejaVuSans-48"/>
       <use x="222.65625" xlink:href="#DejaVuSans-48"/>
      </g>
     </g>
    </g>
    <g id="xtick_2">
     <g id="line2d_3">
      <path clip-path="url(#p26c0d4d60e)" d="M 342.88664 640.8 
L 342.88664 86.4 
" style="fill:none;stroke:#ffffff;stroke-linecap:square;stroke-width:0.8;"/>
     </g>
     <g id="line2d_4">
      <g>
       <use style="fill:#555555;stroke:#555555;stroke-width:0.8;" x="342.88664" xlink:href="#m56a37d3de8" y="640.8"/>
      </g>
     </g>
     <g id="text_2">
      <!-- 0.001 -->
      <defs>
       <path d="M 12.40625 8.296875 
L 28.515625 8.296875 
L 28.515625 63.921875 
L 10.984375 60.40625 
L 10.984375 69.390625 
L 28.421875 72.90625 
L 38.28125 72.90625 
L 38.28125 8.296875 
L 54.390625 8.296875 
L 54.390625 0 
L 12.40625 0 
z
" id="DejaVuSans-49"/>
      </defs>
      <g style="fill:#555555;" transform="translate(328.572577 655.398438)scale(0.1 -0.1)">
       <use xlink:href="#DejaVuSans-48"/>
       <use x="63.623047" xlink:href="#DejaVuSans-46"/>
       <use x="95.410156" xlink:href="#DejaVuSans-48"/>
       <use x="159.033203" xlink:href="#DejaVuSans-48"/>
       <use x="222.65625" xlink:href="#DejaVuSans-49"/>
      </g>
     </g>
    </g>
    <g id="xtick_3">
     <g id="line2d_5">
      <path clip-path="url(#p26c0d4d60e)" d="M 512.727825 640.8 
L 512.727825 86.4 
" style="fill:none;stroke:#ffffff;stroke-linecap:square;stroke-width:0.8;"/>
     </g>
     <g id="line2d_6">
      <g>
       <use style="fill:#555555;stroke:#555555;stroke-width:0.8;" x="512.727825" xlink:href="#m56a37d3de8" y="640.8"/>
      </g>
     </g>
     <g id="text_3">
      <!-- 0.002 -->
      <defs>
       <path d="M 19.1875 8.296875 
L 53.609375 8.296875 
L 53.609375 0 
L 7.328125 0 
L 7.328125 8.296875 
Q 12.9375 14.109375 22.625 23.890625 
Q 32.328125 33.6875 34.8125 36.53125 
Q 39.546875 41.84375 41.421875 45.53125 
Q 43.3125 49.21875 43.3125 52.78125 
Q 43.3125 58.59375 39.234375 62.25 
Q 35.15625 65.921875 28.609375 65.921875 
Q 23.96875 65.921875 18.8125 64.3125 
Q 13.671875 62.703125 7.8125 59.421875 
L 7.8125 69.390625 
Q 13.765625 71.78125 18.9375 73 
Q 24.125 74.21875 28.421875 74.21875 
Q 39.75 74.21875 46.484375 68.546875 
Q 53.21875 62.890625 53.21875 53.421875 
Q 53.21875 48.921875 51.53125 44.890625 
Q 49.859375 40.875 45.40625 35.40625 
Q 44.1875 33.984375 37.640625 27.21875 
Q 31.109375 20.453125 19.1875 8.296875 
z
" id="DejaVuSans-50"/>
      </defs>
      <g style="fill:#555555;" transform="translate(498.413762 655.398438)scale(0.1 -0.1)">
       <use xlink:href="#DejaVuSans-48"/>
       <use x="63.623047" xlink:href="#DejaVuSans-46"/>
       <use x="95.410156" xlink:href="#DejaVuSans-48"/>
       <use x="159.033203" xlink:href="#DejaVuSans-48"/>
       <use x="222.65625" xlink:href="#DejaVuSans-50"/>
      </g>
     </g>
    </g>
    <g id="xtick_4">
     <g id="line2d_7">
      <path clip-path="url(#p26c0d4d60e)" d="M 682.56901 640.8 
L 682.56901 86.4 
" style="fill:none;stroke:#ffffff;stroke-linecap:square;stroke-width:0.8;"/>
     </g>
     <g id="line2d_8">
      <g>
       <use style="fill:#555555;stroke:#555555;stroke-width:0.8;" x="682.56901" xlink:href="#m56a37d3de8" y="640.8"/>
      </g>
     </g>
     <g id="text_4">
      <!-- 0.003 -->
      <defs>
       <path d="M 40.578125 39.3125 
Q 47.65625 37.796875 51.625 33 
Q 55.609375 28.21875 55.609375 21.1875 
Q 55.609375 10.40625 48.1875 4.484375 
Q 40.765625 -1.421875 27.09375 -1.421875 
Q 22.515625 -1.421875 17.65625 -0.515625 
Q 12.796875 0.390625 7.625 2.203125 
L 7.625 11.71875 
Q 11.71875 9.328125 16.59375 8.109375 
Q 21.484375 6.890625 26.8125 6.890625 
Q 36.078125 6.890625 40.9375 10.546875 
Q 45.796875 14.203125 45.796875 21.1875 
Q 45.796875 27.640625 41.28125 31.265625 
Q 36.765625 34.90625 28.71875 34.90625 
L 20.21875 34.90625 
L 20.21875 43.015625 
L 29.109375 43.015625 
Q 36.375 43.015625 40.234375 45.921875 
Q 44.09375 48.828125 44.09375 54.296875 
Q 44.09375 59.90625 40.109375 62.90625 
Q 36.140625 65.921875 28.71875 65.921875 
Q 24.65625 65.921875 20.015625 65.03125 
Q 15.375 64.15625 9.8125 62.3125 
L 9.8125 71.09375 
Q 15.4375 72.65625 20.34375 73.4375 
Q 25.25 74.21875 29.59375 74.21875 
Q 40.828125 74.21875 47.359375 69.109375 
Q 53.90625 64.015625 53.90625 55.328125 
Q 53.90625 49.265625 50.4375 45.09375 
Q 46.96875 40.921875 40.578125 39.3125 
z
" id="DejaVuSans-51"/>
      </defs>
      <g style="fill:#555555;" transform="translate(668.254948 655.398438)scale(0.1 -0.1)">
       <use xlink:href="#DejaVuSans-48"/>
       <use x="63.623047" xlink:href="#DejaVuSans-46"/>
       <use x="95.410156" xlink:href="#DejaVuSans-48"/>
       <use x="159.033203" xlink:href="#DejaVuSans-48"/>
       <use x="222.65625" xlink:href="#DejaVuSans-51"/>
      </g>
     </g>
    </g>
    <g id="xtick_5">
     <g id="line2d_9">
      <path clip-path="url(#p26c0d4d60e)" d="M 852.410195 640.8 
L 852.410195 86.4 
" style="fill:none;stroke:#ffffff;stroke-linecap:square;stroke-width:0.8;"/>
     </g>
     <g id="line2d_10">
      <g>
       <use style="fill:#555555;stroke:#555555;stroke-width:0.8;" x="852.410195" xlink:href="#m56a37d3de8" y="640.8"/>
      </g>
     </g>
     <g id="text_5">
      <!-- 0.004 -->
      <defs>
       <path d="M 37.796875 64.3125 
L 12.890625 25.390625 
L 37.796875 25.390625 
z
M 35.203125 72.90625 
L 47.609375 72.90625 
L 47.609375 25.390625 
L 58.015625 25.390625 
L 58.015625 17.1875 
L 47.609375 17.1875 
L 47.609375 0 
L 37.796875 0 
L 37.796875 17.1875 
L 4.890625 17.1875 
L 4.890625 26.703125 
z
" id="DejaVuSans-52"/>
      </defs>
      <g style="fill:#555555;" transform="translate(838.096133 655.398438)scale(0.1 -0.1)">
       <use xlink:href="#DejaVuSans-48"/>
       <use x="63.623047" xlink:href="#DejaVuSans-46"/>
       <use x="95.410156" xlink:href="#DejaVuSans-48"/>
       <use x="159.033203" xlink:href="#DejaVuSans-48"/>
       <use x="222.65625" xlink:href="#DejaVuSans-52"/>
      </g>
     </g>
    </g>
    <g id="text_6">
     <!-- confirmed cases / population -->
     <defs>
      <path d="M 48.78125 52.59375 
L 48.78125 44.1875 
Q 44.96875 46.296875 41.140625 47.34375 
Q 37.3125 48.390625 33.40625 48.390625 
Q 24.65625 48.390625 19.8125 42.84375 
Q 14.984375 37.3125 14.984375 27.296875 
Q 14.984375 17.28125 19.8125 11.734375 
Q 24.65625 6.203125 33.40625 6.203125 
Q 37.3125 6.203125 41.140625 7.25 
Q 44.96875 8.296875 48.78125 10.40625 
L 48.78125 2.09375 
Q 45.015625 0.34375 40.984375 -0.53125 
Q 36.96875 -1.421875 32.421875 -1.421875 
Q 20.0625 -1.421875 12.78125 6.34375 
Q 5.515625 14.109375 5.515625 27.296875 
Q 5.515625 40.671875 12.859375 48.328125 
Q 20.21875 56 33.015625 56 
Q 37.15625 56 41.109375 55.140625 
Q 45.0625 54.296875 48.78125 52.59375 
z
" id="DejaVuSans-99"/>
      <path d="M 30.609375 48.390625 
Q 23.390625 48.390625 19.1875 42.75 
Q 14.984375 37.109375 14.984375 27.296875 
Q 14.984375 17.484375 19.15625 11.84375 
Q 23.34375 6.203125 30.609375 6.203125 
Q 37.796875 6.203125 41.984375 11.859375 
Q 46.1875 17.53125 46.1875 27.296875 
Q 46.1875 37.015625 41.984375 42.703125 
Q 37.796875 48.390625 30.609375 48.390625 
z
M 30.609375 56 
Q 42.328125 56 49.015625 48.375 
Q 55.71875 40.765625 55.71875 27.296875 
Q 55.71875 13.875 49.015625 6.21875 
Q 42.328125 -1.421875 30.609375 -1.421875 
Q 18.84375 -1.421875 12.171875 6.21875 
Q 5.515625 13.875 5.515625 27.296875 
Q 5.515625 40.765625 12.171875 48.375 
Q 18.84375 56 30.609375 56 
z
" id="DejaVuSans-111"/>
      <path d="M 54.890625 33.015625 
L 54.890625 0 
L 45.90625 0 
L 45.90625 32.71875 
Q 45.90625 40.484375 42.875 44.328125 
Q 39.84375 48.1875 33.796875 48.1875 
Q 26.515625 48.1875 22.3125 43.546875 
Q 18.109375 38.921875 18.109375 30.90625 
L 18.109375 0 
L 9.078125 0 
L 9.078125 54.6875 
L 18.109375 54.6875 
L 18.109375 46.1875 
Q 21.34375 51.125 25.703125 53.5625 
Q 30.078125 56 35.796875 56 
Q 45.21875 56 50.046875 50.171875 
Q 54.890625 44.34375 54.890625 33.015625 
z
" id="DejaVuSans-110"/>
      <path d="M 37.109375 75.984375 
L 37.109375 68.5 
L 28.515625 68.5 
Q 23.6875 68.5 21.796875 66.546875 
Q 19.921875 64.59375 19.921875 59.515625 
L 19.921875 54.6875 
L 34.71875 54.6875 
L 34.71875 47.703125 
L 19.921875 47.703125 
L 19.921875 0 
L 10.890625 0 
L 10.890625 47.703125 
L 2.296875 47.703125 
L 2.296875 54.6875 
L 10.890625 54.6875 
L 10.890625 58.5 
Q 10.890625 67.625 15.140625 71.796875 
Q 19.390625 75.984375 28.609375 75.984375 
z
" id="DejaVuSans-102"/>
      <path d="M 9.421875 54.6875 
L 18.40625 54.6875 
L 18.40625 0 
L 9.421875 0 
z
M 9.421875 75.984375 
L 18.40625 75.984375 
L 18.40625 64.59375 
L 9.421875 64.59375 
z
" id="DejaVuSans-105"/>
      <path d="M 41.109375 46.296875 
Q 39.59375 47.171875 37.8125 47.578125 
Q 36.03125 48 33.890625 48 
Q 26.265625 48 22.1875 43.046875 
Q 18.109375 38.09375 18.109375 28.8125 
L 18.109375 0 
L 9.078125 0 
L 9.078125 54.6875 
L 18.109375 54.6875 
L 18.109375 46.1875 
Q 20.953125 51.171875 25.484375 53.578125 
Q 30.03125 56 36.53125 56 
Q 37.453125 56 38.578125 55.875 
Q 39.703125 55.765625 41.0625 55.515625 
z
" id="DejaVuSans-114"/>
      <path d="M 52 44.1875 
Q 55.375 50.25 60.0625 53.125 
Q 64.75 56 71.09375 56 
Q 79.640625 56 84.28125 50.015625 
Q 88.921875 44.046875 88.921875 33.015625 
L 88.921875 0 
L 79.890625 0 
L 79.890625 32.71875 
Q 79.890625 40.578125 77.09375 44.375 
Q 74.3125 48.1875 68.609375 48.1875 
Q 61.625 48.1875 57.5625 43.546875 
Q 53.515625 38.921875 53.515625 30.90625 
L 53.515625 0 
L 44.484375 0 
L 44.484375 32.71875 
Q 44.484375 40.625 41.703125 44.40625 
Q 38.921875 48.1875 33.109375 48.1875 
Q 26.21875 48.1875 22.15625 43.53125 
Q 18.109375 38.875 18.109375 30.90625 
L 18.109375 0 
L 9.078125 0 
L 9.078125 54.6875 
L 18.109375 54.6875 
L 18.109375 46.1875 
Q 21.1875 51.21875 25.484375 53.609375 
Q 29.78125 56 35.6875 56 
Q 41.65625 56 45.828125 52.96875 
Q 50 49.953125 52 44.1875 
z
" id="DejaVuSans-109"/>
      <path d="M 56.203125 29.59375 
L 56.203125 25.203125 
L 14.890625 25.203125 
Q 15.484375 15.921875 20.484375 11.0625 
Q 25.484375 6.203125 34.421875 6.203125 
Q 39.59375 6.203125 44.453125 7.46875 
Q 49.3125 8.734375 54.109375 11.28125 
L 54.109375 2.78125 
Q 49.265625 0.734375 44.1875 -0.34375 
Q 39.109375 -1.421875 33.890625 -1.421875 
Q 20.796875 -1.421875 13.15625 6.1875 
Q 5.515625 13.8125 5.515625 26.8125 
Q 5.515625 40.234375 12.765625 48.109375 
Q 20.015625 56 32.328125 56 
Q 43.359375 56 49.78125 48.890625 
Q 56.203125 41.796875 56.203125 29.59375 
z
M 47.21875 32.234375 
Q 47.125 39.59375 43.09375 43.984375 
Q 39.0625 48.390625 32.421875 48.390625 
Q 24.90625 48.390625 20.390625 44.140625 
Q 15.875 39.890625 15.1875 32.171875 
z
" id="DejaVuSans-101"/>
      <path d="M 45.40625 46.390625 
L 45.40625 75.984375 
L 54.390625 75.984375 
L 54.390625 0 
L 45.40625 0 
L 45.40625 8.203125 
Q 42.578125 3.328125 38.25 0.953125 
Q 33.9375 -1.421875 27.875 -1.421875 
Q 17.96875 -1.421875 11.734375 6.484375 
Q 5.515625 14.40625 5.515625 27.296875 
Q 5.515625 40.1875 11.734375 48.09375 
Q 17.96875 56 27.875 56 
Q 33.9375 56 38.25 53.625 
Q 42.578125 51.265625 45.40625 46.390625 
z
M 14.796875 27.296875 
Q 14.796875 17.390625 18.875 11.75 
Q 22.953125 6.109375 30.078125 6.109375 
Q 37.203125 6.109375 41.296875 11.75 
Q 45.40625 17.390625 45.40625 27.296875 
Q 45.40625 37.203125 41.296875 42.84375 
Q 37.203125 48.484375 30.078125 48.484375 
Q 22.953125 48.484375 18.875 42.84375 
Q 14.796875 37.203125 14.796875 27.296875 
z
" id="DejaVuSans-100"/>
      <path id="DejaVuSans-32"/>
      <path d="M 34.28125 27.484375 
Q 23.390625 27.484375 19.1875 25 
Q 14.984375 22.515625 14.984375 16.5 
Q 14.984375 11.71875 18.140625 8.90625 
Q 21.296875 6.109375 26.703125 6.109375 
Q 34.1875 6.109375 38.703125 11.40625 
Q 43.21875 16.703125 43.21875 25.484375 
L 43.21875 27.484375 
z
M 52.203125 31.203125 
L 52.203125 0 
L 43.21875 0 
L 43.21875 8.296875 
Q 40.140625 3.328125 35.546875 0.953125 
Q 30.953125 -1.421875 24.3125 -1.421875 
Q 15.921875 -1.421875 10.953125 3.296875 
Q 6 8.015625 6 15.921875 
Q 6 25.140625 12.171875 29.828125 
Q 18.359375 34.515625 30.609375 34.515625 
L 43.21875 34.515625 
L 43.21875 35.40625 
Q 43.21875 41.609375 39.140625 45 
Q 35.0625 48.390625 27.6875 48.390625 
Q 23 48.390625 18.546875 47.265625 
Q 14.109375 46.140625 10.015625 43.890625 
L 10.015625 52.203125 
Q 14.9375 54.109375 19.578125 55.046875 
Q 24.21875 56 28.609375 56 
Q 40.484375 56 46.34375 49.84375 
Q 52.203125 43.703125 52.203125 31.203125 
z
" id="DejaVuSans-97"/>
      <path d="M 44.28125 53.078125 
L 44.28125 44.578125 
Q 40.484375 46.53125 36.375 47.5 
Q 32.28125 48.484375 27.875 48.484375 
Q 21.1875 48.484375 17.84375 46.4375 
Q 14.5 44.390625 14.5 40.28125 
Q 14.5 37.15625 16.890625 35.375 
Q 19.28125 33.59375 26.515625 31.984375 
L 29.59375 31.296875 
Q 39.15625 29.25 43.1875 25.515625 
Q 47.21875 21.78125 47.21875 15.09375 
Q 47.21875 7.46875 41.1875 3.015625 
Q 35.15625 -1.421875 24.609375 -1.421875 
Q 20.21875 -1.421875 15.453125 -0.5625 
Q 10.6875 0.296875 5.421875 2 
L 5.421875 11.28125 
Q 10.40625 8.6875 15.234375 7.390625 
Q 20.0625 6.109375 24.8125 6.109375 
Q 31.15625 6.109375 34.5625 8.28125 
Q 37.984375 10.453125 37.984375 14.40625 
Q 37.984375 18.0625 35.515625 20.015625 
Q 33.0625 21.96875 24.703125 23.78125 
L 21.578125 24.515625 
Q 13.234375 26.265625 9.515625 29.90625 
Q 5.8125 33.546875 5.8125 39.890625 
Q 5.8125 47.609375 11.28125 51.796875 
Q 16.75 56 26.8125 56 
Q 31.78125 56 36.171875 55.265625 
Q 40.578125 54.546875 44.28125 53.078125 
z
" id="DejaVuSans-115"/>
      <path d="M 25.390625 72.90625 
L 33.6875 72.90625 
L 8.296875 -9.28125 
L 0 -9.28125 
z
" id="DejaVuSans-47"/>
      <path d="M 18.109375 8.203125 
L 18.109375 -20.796875 
L 9.078125 -20.796875 
L 9.078125 54.6875 
L 18.109375 54.6875 
L 18.109375 46.390625 
Q 20.953125 51.265625 25.265625 53.625 
Q 29.59375 56 35.59375 56 
Q 45.5625 56 51.78125 48.09375 
Q 58.015625 40.1875 58.015625 27.296875 
Q 58.015625 14.40625 51.78125 6.484375 
Q 45.5625 -1.421875 35.59375 -1.421875 
Q 29.59375 -1.421875 25.265625 0.953125 
Q 20.953125 3.328125 18.109375 8.203125 
z
M 48.6875 27.296875 
Q 48.6875 37.203125 44.609375 42.84375 
Q 40.53125 48.484375 33.40625 48.484375 
Q 26.265625 48.484375 22.1875 42.84375 
Q 18.109375 37.203125 18.109375 27.296875 
Q 18.109375 17.390625 22.1875 11.75 
Q 26.265625 6.109375 33.40625 6.109375 
Q 40.53125 6.109375 44.609375 11.75 
Q 48.6875 17.390625 48.6875 27.296875 
z
" id="DejaVuSans-112"/>
      <path d="M 8.5 21.578125 
L 8.5 54.6875 
L 17.484375 54.6875 
L 17.484375 21.921875 
Q 17.484375 14.15625 20.5 10.265625 
Q 23.53125 6.390625 29.59375 6.390625 
Q 36.859375 6.390625 41.078125 11.03125 
Q 45.3125 15.671875 45.3125 23.6875 
L 45.3125 54.6875 
L 54.296875 54.6875 
L 54.296875 0 
L 45.3125 0 
L 45.3125 8.40625 
Q 42.046875 3.421875 37.71875 1 
Q 33.40625 -1.421875 27.6875 -1.421875 
Q 18.265625 -1.421875 13.375 4.4375 
Q 8.5 10.296875 8.5 21.578125 
z
M 31.109375 56 
z
" id="DejaVuSans-117"/>
      <path d="M 9.421875 75.984375 
L 18.40625 75.984375 
L 18.40625 0 
L 9.421875 0 
z
" id="DejaVuSans-108"/>
      <path d="M 18.3125 70.21875 
L 18.3125 54.6875 
L 36.8125 54.6875 
L 36.8125 47.703125 
L 18.3125 47.703125 
L 18.3125 18.015625 
Q 18.3125 11.328125 20.140625 9.421875 
Q 21.96875 7.515625 27.59375 7.515625 
L 36.8125 7.515625 
L 36.8125 0 
L 27.59375 0 
Q 17.1875 0 13.234375 3.875 
Q 9.28125 7.765625 9.28125 18.015625 
L 9.28125 47.703125 
L 2.6875 47.703125 
L 2.6875 54.6875 
L 9.28125 54.6875 
L 9.28125 70.21875 
z
" id="DejaVuSans-116"/>
     </defs>
     <g style="fill:#555555;" transform="translate(466.547813 670.59625)scale(0.12 -0.12)">
      <use xlink:href="#DejaVuSans-99"/>
      <use x="54.980469" xlink:href="#DejaVuSans-111"/>
      <use x="116.162109" xlink:href="#DejaVuSans-110"/>
      <use x="179.541016" xlink:href="#DejaVuSans-102"/>
      <use x="214.746094" xlink:href="#DejaVuSans-105"/>
      <use x="242.529297" xlink:href="#DejaVuSans-114"/>
      <use x="283.626953" xlink:href="#DejaVuSans-109"/>
      <use x="381.039062" xlink:href="#DejaVuSans-101"/>
      <use x="442.5625" xlink:href="#DejaVuSans-100"/>
      <use x="506.039062" xlink:href="#DejaVuSans-32"/>
      <use x="537.826172" xlink:href="#DejaVuSans-99"/>
      <use x="592.806641" xlink:href="#DejaVuSans-97"/>
      <use x="654.085938" xlink:href="#DejaVuSans-115"/>
      <use x="706.185547" xlink:href="#DejaVuSans-101"/>
      <use x="767.708984" xlink:href="#DejaVuSans-115"/>
      <use x="819.808594" xlink:href="#DejaVuSans-32"/>
      <use x="851.595703" xlink:href="#DejaVuSans-47"/>
      <use x="885.287109" xlink:href="#DejaVuSans-32"/>
      <use x="917.074219" xlink:href="#DejaVuSans-112"/>
      <use x="980.550781" xlink:href="#DejaVuSans-111"/>
      <use x="1041.732422" xlink:href="#DejaVuSans-112"/>
      <use x="1105.208984" xlink:href="#DejaVuSans-117"/>
      <use x="1168.587891" xlink:href="#DejaVuSans-108"/>
      <use x="1196.371094" xlink:href="#DejaVuSans-97"/>
      <use x="1257.650391" xlink:href="#DejaVuSans-116"/>
      <use x="1296.859375" xlink:href="#DejaVuSans-105"/>
      <use x="1324.642578" xlink:href="#DejaVuSans-111"/>
      <use x="1385.824219" xlink:href="#DejaVuSans-110"/>
     </g>
    </g>
   </g>
   <g id="matplotlib.axis_2">
    <g id="ytick_1">
     <g id="line2d_11">
      <path clip-path="url(#p26c0d4d60e)" d="M 135 615.6 
L 972 615.6 
" style="fill:none;stroke:#ffffff;stroke-linecap:square;stroke-width:0.8;"/>
     </g>
     <g id="line2d_12">
      <defs>
       <path d="M 0 0 
L -3.5 0 
" id="m13aaf30bbd" style="stroke:#555555;stroke-width:0.8;"/>
      </defs>
      <g>
       <use style="fill:#555555;stroke:#555555;stroke-width:0.8;" x="135" xlink:href="#m13aaf30bbd" y="615.6"/>
      </g>
     </g>
     <g id="text_7">
      <!-- 0.00000 -->
      <g style="fill:#555555;" transform="translate(86.646875 619.399219)scale(0.1 -0.1)">
       <use xlink:href="#DejaVuSans-48"/>
       <use x="63.623047" xlink:href="#DejaVuSans-46"/>
       <use x="95.410156" xlink:href="#DejaVuSans-48"/>
       <use x="159.033203" xlink:href="#DejaVuSans-48"/>
       <use x="222.65625" xlink:href="#DejaVuSans-48"/>
       <use x="286.279297" xlink:href="#DejaVuSans-48"/>
       <use x="349.902344" xlink:href="#DejaVuSans-48"/>
      </g>
     </g>
    </g>
    <g id="ytick_2">
     <g id="line2d_13">
      <path clip-path="url(#p26c0d4d60e)" d="M 135 553.98695 
L 972 553.98695 
" style="fill:none;stroke:#ffffff;stroke-linecap:square;stroke-width:0.8;"/>
     </g>
     <g id="line2d_14">
      <g>
       <use style="fill:#555555;stroke:#555555;stroke-width:0.8;" x="135" xlink:href="#m13aaf30bbd" y="553.98695"/>
      </g>
     </g>
     <g id="text_8">
      <!-- 0.00002 -->
      <g style="fill:#555555;" transform="translate(86.646875 557.786169)scale(0.1 -0.1)">
       <use xlink:href="#DejaVuSans-48"/>
       <use x="63.623047" xlink:href="#DejaVuSans-46"/>
       <use x="95.410156" xlink:href="#DejaVuSans-48"/>
       <use x="159.033203" xlink:href="#DejaVuSans-48"/>
       <use x="222.65625" xlink:href="#DejaVuSans-48"/>
       <use x="286.279297" xlink:href="#DejaVuSans-48"/>
       <use x="349.902344" xlink:href="#DejaVuSans-50"/>
      </g>
     </g>
    </g>
    <g id="ytick_3">
     <g id="line2d_15">
      <path clip-path="url(#p26c0d4d60e)" d="M 135 492.3739 
L 972 492.3739 
" style="fill:none;stroke:#ffffff;stroke-linecap:square;stroke-width:0.8;"/>
     </g>
     <g id="line2d_16">
      <g>
       <use style="fill:#555555;stroke:#555555;stroke-width:0.8;" x="135" xlink:href="#m13aaf30bbd" y="492.3739"/>
      </g>
     </g>
     <g id="text_9">
      <!-- 0.00004 -->
      <g style="fill:#555555;" transform="translate(86.646875 496.173118)scale(0.1 -0.1)">
       <use xlink:href="#DejaVuSans-48"/>
       <use x="63.623047" xlink:href="#DejaVuSans-46"/>
       <use x="95.410156" xlink:href="#DejaVuSans-48"/>
       <use x="159.033203" xlink:href="#DejaVuSans-48"/>
       <use x="222.65625" xlink:href="#DejaVuSans-48"/>
       <use x="286.279297" xlink:href="#DejaVuSans-48"/>
       <use x="349.902344" xlink:href="#DejaVuSans-52"/>
      </g>
     </g>
    </g>
    <g id="ytick_4">
     <g id="line2d_17">
      <path clip-path="url(#p26c0d4d60e)" d="M 135 430.760849 
L 972 430.760849 
" style="fill:none;stroke:#ffffff;stroke-linecap:square;stroke-width:0.8;"/>
     </g>
     <g id="line2d_18">
      <g>
       <use style="fill:#555555;stroke:#555555;stroke-width:0.8;" x="135" xlink:href="#m13aaf30bbd" y="430.760849"/>
      </g>
     </g>
     <g id="text_10">
      <!-- 0.00006 -->
      <defs>
       <path d="M 33.015625 40.375 
Q 26.375 40.375 22.484375 35.828125 
Q 18.609375 31.296875 18.609375 23.390625 
Q 18.609375 15.53125 22.484375 10.953125 
Q 26.375 6.390625 33.015625 6.390625 
Q 39.65625 6.390625 43.53125 10.953125 
Q 47.40625 15.53125 47.40625 23.390625 
Q 47.40625 31.296875 43.53125 35.828125 
Q 39.65625 40.375 33.015625 40.375 
z
M 52.59375 71.296875 
L 52.59375 62.3125 
Q 48.875 64.0625 45.09375 64.984375 
Q 41.3125 65.921875 37.59375 65.921875 
Q 27.828125 65.921875 22.671875 59.328125 
Q 17.53125 52.734375 16.796875 39.40625 
Q 19.671875 43.65625 24.015625 45.921875 
Q 28.375 48.1875 33.59375 48.1875 
Q 44.578125 48.1875 50.953125 41.515625 
Q 57.328125 34.859375 57.328125 23.390625 
Q 57.328125 12.15625 50.6875 5.359375 
Q 44.046875 -1.421875 33.015625 -1.421875 
Q 20.359375 -1.421875 13.671875 8.265625 
Q 6.984375 17.96875 6.984375 36.375 
Q 6.984375 53.65625 15.1875 63.9375 
Q 23.390625 74.21875 37.203125 74.21875 
Q 40.921875 74.21875 44.703125 73.484375 
Q 48.484375 72.75 52.59375 71.296875 
z
" id="DejaVuSans-54"/>
      </defs>
      <g style="fill:#555555;" transform="translate(86.646875 434.560068)scale(0.1 -0.1)">
       <use xlink:href="#DejaVuSans-48"/>
       <use x="63.623047" xlink:href="#DejaVuSans-46"/>
       <use x="95.410156" xlink:href="#DejaVuSans-48"/>
       <use x="159.033203" xlink:href="#DejaVuSans-48"/>
       <use x="222.65625" xlink:href="#DejaVuSans-48"/>
       <use x="286.279297" xlink:href="#DejaVuSans-48"/>
       <use x="349.902344" xlink:href="#DejaVuSans-54"/>
      </g>
     </g>
    </g>
    <g id="ytick_5">
     <g id="line2d_19">
      <path clip-path="url(#p26c0d4d60e)" d="M 135 369.147799 
L 972 369.147799 
" style="fill:none;stroke:#ffffff;stroke-linecap:square;stroke-width:0.8;"/>
     </g>
     <g id="line2d_20">
      <g>
       <use style="fill:#555555;stroke:#555555;stroke-width:0.8;" x="135" xlink:href="#m13aaf30bbd" y="369.147799"/>
      </g>
     </g>
     <g id="text_11">
      <!-- 0.00008 -->
      <defs>
       <path d="M 31.78125 34.625 
Q 24.75 34.625 20.71875 30.859375 
Q 16.703125 27.09375 16.703125 20.515625 
Q 16.703125 13.921875 20.71875 10.15625 
Q 24.75 6.390625 31.78125 6.390625 
Q 38.8125 6.390625 42.859375 10.171875 
Q 46.921875 13.96875 46.921875 20.515625 
Q 46.921875 27.09375 42.890625 30.859375 
Q 38.875 34.625 31.78125 34.625 
z
M 21.921875 38.8125 
Q 15.578125 40.375 12.03125 44.71875 
Q 8.5 49.078125 8.5 55.328125 
Q 8.5 64.0625 14.71875 69.140625 
Q 20.953125 74.21875 31.78125 74.21875 
Q 42.671875 74.21875 48.875 69.140625 
Q 55.078125 64.0625 55.078125 55.328125 
Q 55.078125 49.078125 51.53125 44.71875 
Q 48 40.375 41.703125 38.8125 
Q 48.828125 37.15625 52.796875 32.3125 
Q 56.78125 27.484375 56.78125 20.515625 
Q 56.78125 9.90625 50.3125 4.234375 
Q 43.84375 -1.421875 31.78125 -1.421875 
Q 19.734375 -1.421875 13.25 4.234375 
Q 6.78125 9.90625 6.78125 20.515625 
Q 6.78125 27.484375 10.78125 32.3125 
Q 14.796875 37.15625 21.921875 38.8125 
z
M 18.3125 54.390625 
Q 18.3125 48.734375 21.84375 45.5625 
Q 25.390625 42.390625 31.78125 42.390625 
Q 38.140625 42.390625 41.71875 45.5625 
Q 45.3125 48.734375 45.3125 54.390625 
Q 45.3125 60.0625 41.71875 63.234375 
Q 38.140625 66.40625 31.78125 66.40625 
Q 25.390625 66.40625 21.84375 63.234375 
Q 18.3125 60.0625 18.3125 54.390625 
z
" id="DejaVuSans-56"/>
      </defs>
      <g style="fill:#555555;" transform="translate(86.646875 372.947018)scale(0.1 -0.1)">
       <use xlink:href="#DejaVuSans-48"/>
       <use x="63.623047" xlink:href="#DejaVuSans-46"/>
       <use x="95.410156" xlink:href="#DejaVuSans-48"/>
       <use x="159.033203" xlink:href="#DejaVuSans-48"/>
       <use x="222.65625" xlink:href="#DejaVuSans-48"/>
       <use x="286.279297" xlink:href="#DejaVuSans-48"/>
       <use x="349.902344" xlink:href="#DejaVuSans-56"/>
      </g>
     </g>
    </g>
    <g id="ytick_6">
     <g id="line2d_21">
      <path clip-path="url(#p26c0d4d60e)" d="M 135 307.534749 
L 972 307.534749 
" style="fill:none;stroke:#ffffff;stroke-linecap:square;stroke-width:0.8;"/>
     </g>
     <g id="line2d_22">
      <g>
       <use style="fill:#555555;stroke:#555555;stroke-width:0.8;" x="135" xlink:href="#m13aaf30bbd" y="307.534749"/>
      </g>
     </g>
     <g id="text_12">
      <!-- 0.00010 -->
      <g style="fill:#555555;" transform="translate(86.646875 311.333968)scale(0.1 -0.1)">
       <use xlink:href="#DejaVuSans-48"/>
       <use x="63.623047" xlink:href="#DejaVuSans-46"/>
       <use x="95.410156" xlink:href="#DejaVuSans-48"/>
       <use x="159.033203" xlink:href="#DejaVuSans-48"/>
       <use x="222.65625" xlink:href="#DejaVuSans-48"/>
       <use x="286.279297" xlink:href="#DejaVuSans-49"/>
       <use x="349.902344" xlink:href="#DejaVuSans-48"/>
      </g>
     </g>
    </g>
    <g id="ytick_7">
     <g id="line2d_23">
      <path clip-path="url(#p26c0d4d60e)" d="M 135 245.921699 
L 972 245.921699 
" style="fill:none;stroke:#ffffff;stroke-linecap:square;stroke-width:0.8;"/>
     </g>
     <g id="line2d_24">
      <g>
       <use style="fill:#555555;stroke:#555555;stroke-width:0.8;" x="135" xlink:href="#m13aaf30bbd" y="245.921699"/>
      </g>
     </g>
     <g id="text_13">
      <!-- 0.00012 -->
      <g style="fill:#555555;" transform="translate(86.646875 249.720918)scale(0.1 -0.1)">
       <use xlink:href="#DejaVuSans-48"/>
       <use x="63.623047" xlink:href="#DejaVuSans-46"/>
       <use x="95.410156" xlink:href="#DejaVuSans-48"/>
       <use x="159.033203" xlink:href="#DejaVuSans-48"/>
       <use x="222.65625" xlink:href="#DejaVuSans-48"/>
       <use x="286.279297" xlink:href="#DejaVuSans-49"/>
       <use x="349.902344" xlink:href="#DejaVuSans-50"/>
      </g>
     </g>
    </g>
    <g id="ytick_8">
     <g id="line2d_25">
      <path clip-path="url(#p26c0d4d60e)" d="M 135 184.308649 
L 972 184.308649 
" style="fill:none;stroke:#ffffff;stroke-linecap:square;stroke-width:0.8;"/>
     </g>
     <g id="line2d_26">
      <g>
       <use style="fill:#555555;stroke:#555555;stroke-width:0.8;" x="135" xlink:href="#m13aaf30bbd" y="184.308649"/>
      </g>
     </g>
     <g id="text_14">
      <!-- 0.00014 -->
      <g style="fill:#555555;" transform="translate(86.646875 188.107868)scale(0.1 -0.1)">
       <use xlink:href="#DejaVuSans-48"/>
       <use x="63.623047" xlink:href="#DejaVuSans-46"/>
       <use x="95.410156" xlink:href="#DejaVuSans-48"/>
       <use x="159.033203" xlink:href="#DejaVuSans-48"/>
       <use x="222.65625" xlink:href="#DejaVuSans-48"/>
       <use x="286.279297" xlink:href="#DejaVuSans-49"/>
       <use x="349.902344" xlink:href="#DejaVuSans-52"/>
      </g>
     </g>
    </g>
    <g id="ytick_9">
     <g id="line2d_27">
      <path clip-path="url(#p26c0d4d60e)" d="M 135 122.695599 
L 972 122.695599 
" style="fill:none;stroke:#ffffff;stroke-linecap:square;stroke-width:0.8;"/>
     </g>
     <g id="line2d_28">
      <g>
       <use style="fill:#555555;stroke:#555555;stroke-width:0.8;" x="135" xlink:href="#m13aaf30bbd" y="122.695599"/>
      </g>
     </g>
     <g id="text_15">
      <!-- 0.00016 -->
      <g style="fill:#555555;" transform="translate(86.646875 126.494817)scale(0.1 -0.1)">
       <use xlink:href="#DejaVuSans-48"/>
       <use x="63.623047" xlink:href="#DejaVuSans-46"/>
       <use x="95.410156" xlink:href="#DejaVuSans-48"/>
       <use x="159.033203" xlink:href="#DejaVuSans-48"/>
       <use x="222.65625" xlink:href="#DejaVuSans-48"/>
       <use x="286.279297" xlink:href="#DejaVuSans-49"/>
       <use x="349.902344" xlink:href="#DejaVuSans-54"/>
      </g>
     </g>
    </g>
    <g id="text_16">
     <!-- infection rate / population -->
     <g style="fill:#555555;" transform="translate(80.15125 441.523125)rotate(-90)scale(0.12 -0.12)">
      <use xlink:href="#DejaVuSans-105"/>
      <use x="27.783203" xlink:href="#DejaVuSans-110"/>
      <use x="91.162109" xlink:href="#DejaVuSans-102"/>
      <use x="126.367188" xlink:href="#DejaVuSans-101"/>
      <use x="187.890625" xlink:href="#DejaVuSans-99"/>
      <use x="242.871094" xlink:href="#DejaVuSans-116"/>
      <use x="282.080078" xlink:href="#DejaVuSans-105"/>
      <use x="309.863281" xlink:href="#DejaVuSans-111"/>
      <use x="371.044922" xlink:href="#DejaVuSans-110"/>
      <use x="434.423828" xlink:href="#DejaVuSans-32"/>
      <use x="466.210938" xlink:href="#DejaVuSans-114"/>
      <use x="507.324219" xlink:href="#DejaVuSans-97"/>
      <use x="568.603516" xlink:href="#DejaVuSans-116"/>
      <use x="607.8125" xlink:href="#DejaVuSans-101"/>
      <use x="669.335938" xlink:href="#DejaVuSans-32"/>
      <use x="701.123047" xlink:href="#DejaVuSans-47"/>
      <use x="734.814453" xlink:href="#DejaVuSans-32"/>
      <use x="766.601562" xlink:href="#DejaVuSans-112"/>
      <use x="830.078125" xlink:href="#DejaVuSans-111"/>
      <use x="891.259766" xlink:href="#DejaVuSans-112"/>
      <use x="954.736328" xlink:href="#DejaVuSans-117"/>
      <use x="1018.115234" xlink:href="#DejaVuSans-108"/>
      <use x="1045.898438" xlink:href="#DejaVuSans-97"/>
      <use x="1107.177734" xlink:href="#DejaVuSans-116"/>
      <use x="1146.386719" xlink:href="#DejaVuSans-105"/>
      <use x="1174.169922" xlink:href="#DejaVuSans-111"/>
      <use x="1235.351562" xlink:href="#DejaVuSans-110"/>
     </g>
    </g>
   </g>
   <g id="line2d_29">
    <path clip-path="url(#p26c0d4d60e)" d="M 173.145362 615.6 
L 173.145362 615.6 
L 173.145362 615.6 
L 173.145362 615.6 
L 173.145362 615.6 
L 173.145362 615.6 
L 173.145362 615.6 
L 173.145362 615.6 
L 173.145362 615.6 
L 173.145362 615.6 
L 173.145362 615.6 
L 173.145362 615.6 
L 173.145362 615.6 
L 173.149556 615.591914 
L 173.156582 615.575779 
L 173.167247 615.548944 
L 173.184162 615.505786 
L 173.209766 615.440572 
L 173.241007 615.358041 
L 173.277425 615.261485 
L 173.316672 615.164773 
L 173.360791 615.065648 
L 173.408055 614.971108 
L 173.463006 614.877978 
L 173.528668 614.78027 
L 173.596759 614.683383 
L 173.694204 614.53666 
L 173.825364 614.315087 
L 173.993253 614.004648 
L 174.214288 613.564643 
L 174.488693 612.993785 
L 174.83466 612.262667 
L 175.25613 611.352723 
L 175.751695 610.314606 
L 176.394701 609.020727 
L 177.273472 607.274671 
L 178.317626 605.164858 
L 179.608437 602.537912 
L 181.123941 599.452783 
L 182.899373 595.885423 
L 184.866941 592.012206 
L 187.062126 587.971478 
L 189.414044 584.063816 
L 191.854698 580.369725 
L 194.242988 577.377586 
L 196.675106 574.986822 
L 199.007487 573.52193 
L 201.20871 572.958747 
L 203.227334 573.434615 
L 205.07034 574.779753 
L 206.678328 576.935059 
L 208.103323 579.558201 
L 209.343254 582.72076 
L 210.452873 585.985927 
L 211.410008 589.255355 
L 212.248097 592.340003 
L 212.968364 595.218146 
L 213.582577 597.780766 
L 214.130877 600.057383 
L 214.607308 602.054376 
L 215.012476 603.861215 
L 215.360945 605.425786 
L 215.668629 606.78671 
L 215.945963 607.934348 
L 216.199046 608.885473 
L 216.452584 609.657633 
L 216.685401 610.270144 
L 216.884796 610.767405 
L 217.061951 611.185002 
L 217.216214 611.570963 
L 217.3413 611.966486 
" style="fill:none;stroke:#e24a33;stroke-linecap:square;stroke-width:1.5;"/>
   </g>
   <g id="line2d_30">
    <path clip-path="url(#p26c0d4d60e)" d="M 173.045455 615.6 
L 173.045455 615.6 
L 173.045455 615.6 
L 173.045455 615.6 
L 173.045455 615.6 
L 173.045455 615.6 
L 173.045455 615.6 
L 173.045455 615.6 
L 173.045455 615.6 
L 173.045455 615.6 
L 173.045455 615.6 
L 173.045455 615.6 
L 173.045455 615.6 
L 173.045455 615.6 
L 173.045455 615.6 
L 173.045455 615.6 
L 173.045455 615.6 
L 173.045737 615.599455 
L 173.046154 615.598477 
L 173.047835 615.594849 
L 173.050153 615.589102 
L 173.054737 615.578033 
L 173.061903 615.560232 
L 173.072285 615.533934 
L 173.087001 615.497035 
L 173.109002 615.443211 
L 173.139736 615.369819 
L 173.185115 615.263066 
L 173.241731 615.128519 
L 173.321718 614.943933 
L 173.428333 614.69962 
L 173.551532 614.413576 
L 173.711889 614.057478 
L 173.904391 613.63932 
L 174.139047 613.150582 
L 174.416253 612.583799 
L 174.738435 611.954593 
L 175.120163 611.24019 
L 175.554653 610.436228 
L 176.048764 609.567788 
L 176.610945 608.612088 
L 177.241706 607.584092 
L 177.949283 606.470354 
L 178.717184 605.307609 
L 179.559631 604.103256 
L 180.466358 602.869643 
L 181.466445 601.573404 
L 182.587014 600.164166 
L 183.787953 598.691756 
L 185.12279 597.070722 
L 186.539274 595.359859 
L 188.06224 593.564882 
L 189.665787 591.739108 
L 191.318606 590.019887 
L 193.009479 588.499121 
L 194.704885 587.203119 
L 196.378063 586.292681 
L 198.04168 585.674565 
L 199.629097 585.503052 
L 201.19622 585.630047 
L 202.709779 586.026408 
L 204.232729 586.524445 
L 205.762391 587.009475 
L 207.364411 587.26831 
L 209.001458 587.326201 
L 210.669065 587.08645 
L 212.358321 586.690799 
L 214.041032 586.192335 
L 215.686215 585.816686 
L 217.30581 585.591861 
L 218.878318 585.671007 
" style="fill:none;stroke:#348abd;stroke-linecap:square;stroke-width:1.5;"/>
   </g>
   <g id="line2d_31">
    <path clip-path="url(#p26c0d4d60e)" d="M 173.045455 615.6 
L 173.045455 615.6 
L 173.045455 615.6 
L 173.045455 615.6 
L 173.045455 615.6 
L 173.045455 615.6 
L 173.045455 615.6 
L 173.045455 615.6 
L 173.045455 615.6 
L 173.045455 615.6 
L 173.045455 615.6 
L 173.045455 615.6 
L 173.046586 615.597818 
L 173.048256 615.5939 
L 173.050461 615.588097 
L 173.053065 615.58075 
L 173.055818 615.572725 
L 173.064081 615.554323 
L 173.074635 615.529005 
L 173.087327 615.498411 
L 173.101481 615.463254 
L 173.115246 615.428856 
L 173.128267 615.398888 
L 173.142685 615.371729 
L 173.156044 615.359435 
L 173.171712 615.349169 
L 173.201511 615.315201 
L 173.241431 615.254587 
L 173.290124 615.163148 
L 173.354248 615.028782 
L 173.423395 614.87495 
L 173.509286 614.684751 
L 173.595848 614.497306 
L 173.702509 614.3023 
L 173.819968 614.103792 
L 173.932474 613.930411 
L 174.054535 613.773923 
L 174.173923 613.640905 
L 174.2818 613.571996 
L 174.378059 613.55002 
L 174.45739 613.618393 
L 174.528853 613.741437 
L 174.579199 613.912995 
L 174.687049 614.002727 
L 174.822605 613.994119 
L 174.992099 613.841533 
L 175.344397 613.252791 
L 175.830323 612.235795 
L 176.50912 610.677361 
L 177.424776 608.463547 
L 178.616966 605.633437 
L 180.116847 602.078655 
L 181.936279 597.822625 
L 184.387433 592.526538 
L 187.652134 585.605204 
L 191.489148 577.430358 
L 196.074016 567.80065 
L 201.290575 557.066612 
L 207.017256 545.737453 
L 213.210141 534.254416 
L 219.813083 523.461802 
L 226.884405 513.585693 
L 233.688015 505.611443 
L 239.985414 500.639031 
L 247.404047 495.678966 
L 255.201724 491.116647 
L 263.576319 486.099635 
L 272.794326 479.602062 
L 282.894333 471.248683 
L 293.941612 459.790238 
L 305.884525 445.458612 
" style="fill:none;stroke:#988ed5;stroke-linecap:square;stroke-width:1.5;"/>
   </g>
   <g id="line2d_32">
    <path clip-path="url(#p26c0d4d60e)" d="M 173.045455 615.6 
L 173.045455 615.6 
L 173.045455 615.6 
L 173.045455 615.6 
L 173.045455 615.6 
L 173.045455 615.6 
L 173.045455 615.6 
L 173.045455 615.6 
L 173.045455 615.6 
L 173.04669 615.597618 
L 173.048513 615.59334 
L 173.059571 615.570327 
L 173.075176 615.532362 
L 173.107388 615.455422 
L 173.159488 615.326873 
L 173.24195 615.121687 
L 173.358422 614.827947 
L 173.535798 614.390146 
L 173.772041 613.812039 
L 174.164412 612.896051 
L 174.692528 611.648498 
L 175.392055 609.987751 
L 176.218874 608.004058 
L 177.245259 605.611757 
L 178.526489 602.765891 
L 179.894243 599.78388 
L 181.865606 595.918627 
L 184.328132 591.110685 
L 188.038865 583.844572 
L 192.378528 574.766114 
L 197.756569 563.322663 
L 203.948943 550.071262 
L 211.568829 533.95826 
L 221.003944 515.061303 
L 232.792085 491.894681 
L 246.362345 466.170518 
L 262.505679 435.462254 
L 280.399648 402.039086 
L 300.421088 365.633091 
L 321.363515 330.153082 
L 343.068337 297.568694 
L 364.637811 271.109013 
L 385.492827 251.797825 
L 405.92683 240.852422 
L 425.856777 236.736167 
L 445.334473 239.118795 
L 464.658257 244.443321 
L 483.6485 251.785399 
L 502.482083 258.801232 
L 520.602649 265.521146 
L 537.81184 273.209834 
L 554.300077 281.827797 
L 570.118841 291.576877 
L 585.549895 302.278619 
L 599.99881 314.320615 
L 613.782449 327.25874 
L 626.890539 340.044875 
L 638.972393 353.124593 
L 650.040877 367.066732 
L 660.077765 382.115347 
L 669.054523 398.711777 
L 676.770951 416.250418 
L 683.789708 434.231275 
L 690.571265 451.283112 
L 697.007355 466.423608 
L 703.180303 479.217669 
L 709.049589 489.614965 
L 714.557554 497.892485 
L 719.502096 504.635344 
L 724.000317 511.109278 
L 728.147276 518.013886 
" style="fill:none;stroke:#777777;stroke-linecap:square;stroke-width:1.5;"/>
   </g>
   <g id="line2d_33">
    <path clip-path="url(#p26c0d4d60e)" d="M 173.05272 615.6 
L 173.05272 615.6 
L 173.05272 615.6 
L 173.05272 615.6 
L 173.05272 615.6 
L 173.05272 615.6 
L 173.05272 615.6 
L 173.05272 615.6 
L 173.05272 615.6 
L 173.053635 615.598236 
L 173.056586 615.591982 
L 173.061188 615.580865 
L 173.070976 615.557635 
L 173.086487 615.519214 
L 173.114423 615.451403 
L 173.157138 615.345683 
L 173.218779 615.192308 
L 173.30392 614.98131 
L 173.409009 614.717232 
L 173.555374 614.368971 
L 173.741957 613.933226 
L 173.985148 613.38689 
L 174.345504 612.608522 
L 174.89923 611.419281 
L 175.687409 609.678441 
L 176.608716 607.519057 
L 178.285562 603.830104 
L 180.553948 598.632375 
L 183.494166 591.713626 
L 187.289143 582.805768 
L 191.86759 572.156839 
L 197.206296 560.033156 
L 203.638703 545.934647 
L 210.927159 531.303805 
L 219.659433 514.809827 
L 229.183188 497.630771 
L 240.527903 478.309313 
L 253.446082 456.84859 
L 268.873571 431.386354 
L 286.936735 401.694092 
L 307.626848 367.101527 
L 330.518159 329.37894 
L 355.490844 288.426844 
L 381.84173 248.158537 
L 409.448125 209.53045 
L 437.504223 176.322076 
L 466.076665 149.10091 
L 494.13688 129.746103 
L 521.969261 117.211524 
L 549.2236 111.6 
L 575.58762 111.983259 
L 600.885054 118.126817 
L 624.983666 128.660406 
L 647.691093 143.736177 
L 669.115606 161.332729 
L 689.442496 181.295189 
L 708.7489 202.371508 
L 726.941163 223.785563 
L 743.967722 245.135495 
L 760.273054 265.334322 
L 776.467317 282.765989 
L 792.626043 297.054544 
L 808.290491 309.032529 
L 824.600049 316.790264 
L 840.602941 321.755711 
L 856.558782 324.038334 
L 872.331584 325.173302 
L 887.978906 326.384155 
L 903.615163 327.657848 
L 918.843786 329.10928 
L 933.954545 332.067484 
" style="fill:none;stroke:#fbc15e;stroke-linecap:square;stroke-width:1.5;"/>
   </g>
   <g id="line2d_34">
    <path clip-path="url(#p26c0d4d60e)" d="M 173.052125 615.6 
L 173.052125 615.6 
L 173.052125 615.6 
L 173.052125 615.6 
L 173.052125 615.6 
L 173.052202 615.599835 
L 173.052296 615.599624 
L 173.052411 615.599308 
L 173.053723 615.596651 
L 173.055596 615.592174 
L 173.058204 615.585415 
L 173.061325 615.57681 
L 173.064739 615.567259 
L 173.068343 615.557494 
L 173.071856 615.54873 
L 173.07581 615.542113 
L 173.080345 615.535937 
L 173.085383 615.530146 
L 173.093535 615.51894 
L 173.104631 615.500518 
L 173.122064 615.467152 
L 173.146351 615.415216 
L 173.176383 615.346521 
L 173.221611 615.244103 
L 173.283406 615.101877 
L 173.366193 614.912872 
L 173.476179 614.661955 
L 173.616274 614.345374 
L 173.79562 613.944996 
L 174.026349 613.434462 
L 174.336731 612.769244 
L 174.727687 611.93168 
L 175.344638 610.64099 
L 176.244075 608.713276 
L 177.504733 605.916301 
L 179.211379 602.025302 
L 181.489259 596.766692 
L 184.351401 590.117283 
L 187.853928 582.019605 
L 192.169383 572.444973 
L 197.354822 561.36689 
L 203.402428 548.940089 
L 210.356257 535.284879 
L 218.219487 520.66679 
L 227.078246 505.04803 
L 236.818023 488.826871 
L 247.580115 472.133115 
L 259.359559 455.053227 
L 272.09338 437.694515 
L 285.658266 420.418594 
L 299.943436 403.575786 
L 314.854811 387.64332 
L 330.22653 372.924704 
L 345.908276 360.093666 
L 361.902434 349.206733 
L 377.967624 340.560835 
L 394.030127 334.093786 
L 409.896612 329.960795 
L 425.613417 327.914621 
L 441.074566 327.779962 
L 456.297618 329.187795 
L 471.370278 331.787506 
L 486.390692 334.753693 
L 501.34417 337.752307 
L 516.300223 340.208014 
L 531.255493 342.121389 
L 546.221485 343.306631 
L 561.084838 344.095572 
L 576.03702 344.419155 
L 591.075913 344.425277 
L 606.162513 344.136547 
" style="fill:none;stroke:#8eba42;stroke-linecap:square;stroke-width:1.5;"/>
   </g>
   <g id="line2d_35">
    <path clip-path="url(#p26c0d4d60e)" d="M 173.077889 615.6 
L 173.077889 615.6 
L 173.077889 615.6 
L 173.077889 615.6 
L 173.077889 615.6 
L 173.077889 615.6 
L 173.077889 615.6 
L 173.077889 615.6 
L 173.077889 615.6 
L 173.078016 615.599754 
L 173.079481 615.596851 
L 173.084038 615.587102 
L 173.090652 615.570841 
L 173.102957 615.540701 
L 173.124782 615.487504 
L 173.155468 615.409592 
L 173.196314 615.304105 
L 173.250845 615.166651 
L 173.339366 614.9605 
L 173.466566 614.66413 
L 173.631301 614.276165 
L 173.84985 613.76845 
L 174.108754 613.161258 
L 174.418114 612.450959 
L 174.800325 611.612858 
L 175.226088 610.731579 
L 175.865197 609.499318 
L 176.692253 607.873276 
L 177.783308 605.680752 
L 179.206526 602.711533 
L 181.034392 598.801998 
L 183.437409 593.63326 
L 186.45459 587.029351 
L 190.305262 578.81068 
L 194.831966 569.140017 
L 199.869287 558.576971 
L 205.579305 547.207753 
L 211.83539 535.580521 
L 218.590372 524.244972 
L 226.059142 512.956055 
L 234.325395 501.74041 
L 243.554249 489.78434 
L 253.411477 477.269322 
L 264.016715 464.329875 
L 275.093473 451.391436 
L 286.396201 439.208975 
L 297.946311 428.484628 
L 309.642347 419.691175 
L 321.172385 413.644638 
L 332.451015 410.005072 
L 343.339207 409.204956 
L 354.005717 410.405599 
L 364.417354 413.085073 
L 374.483669 417.204226 
L 384.075375 422.603019 
L 393.075521 428.944914 
L 401.599747 435.97609 
L 409.654545 443.494116 
L 417.069809 452.030537 
L 424.006794 461.157028 
L 430.343008 470.799297 
L 436.201099 480.484334 
L 441.683367 489.787739 
L 446.956931 498.464728 
L 452.139004 506.078776 
L 457.061854 512.522306 
L 461.828344 517.927188 
L 466.496966 522.089941 
L 470.830207 525.810568 
L 474.914357 529.350339 
L 478.708358 533.169524 
" style="fill:none;stroke:#ffb5b8;stroke-linecap:square;stroke-width:1.5;"/>
   </g>
   <g id="line2d_36">
    <path clip-path="url(#p26c0d4d60e)" d="M 173.139549 615.575725 
L 173.140814 615.576301 
L 173.142102 615.576413 
L 173.14314 615.577306 
L 173.165188 615.524255 
L 173.214334 615.415052 
L 173.323753 615.184699 
L 173.494664 614.765313 
L 173.77387 614.070077 
L 174.139882 613.116141 
L 174.612484 611.877921 
L 175.233387 610.324941 
L 176.029807 608.414355 
L 177.060583 606.075898 
L 178.314292 603.300269 
L 179.78141 600.174305 
L 181.511633 596.597959 
L 183.39816 592.839368 
L 185.396974 589.150437 
L 187.427876 585.835597 
L 189.40203 583.26481 
L 191.248712 581.650537 
L 192.889476 581.197913 
L 194.317207 582.012768 
L 195.546991 583.833423 
L 196.5314 586.571232 
L 197.353672 589.833684 
L 198.022944 593.318721 
L 198.554842 596.774837 
L 198.985587 599.947222 
L 199.361965 602.702542 
L 199.708953 604.984155 
L 200.059115 606.652893 
L 200.377285 607.916433 
L 200.706021 608.747136 
L 201.056648 609.185902 
L 201.402515 609.379356 
L 201.750928 609.431933 
L 202.097189 609.417871 
L 202.434827 609.416409 
L 202.758895 609.401123 
L 203.075386 609.445292 
L 203.396858 609.532353 
L 203.713887 609.620653 
L 204.036822 609.696579 
L 204.385099 609.704161 
L 204.736175 609.6611 
L 205.08154 609.585305 
L 205.4197 609.50871 
L 205.748899 609.469936 
L 206.053439 609.495797 
L 206.337873 609.608359 
L 206.603666 609.828903 
L 206.83939 610.129445 
L 207.047072 610.490841 
L 207.229114 610.901803 
L 207.387798 611.346751 
L 207.523697 611.792979 
L 207.642648 612.232164 
L 207.752251 612.642516 
L 207.852785 612.996729 
L 207.944755 613.295695 
L 208.030746 613.539984 
L 208.110377 613.737212 
L 208.182886 613.896063 
L 208.246873 614.035604 
L 208.303633 614.170116 
L 208.353876 614.300188 
L 208.39817 614.42619 
L 208.438488 614.547577 
L 208.475835 614.659178 
" style="fill:none;stroke:#e24a33;stroke-linecap:square;stroke-width:1.5;"/>
   </g>
   <g id="patch_3">
    <path d="M 135 640.8 
L 135 86.4 
" style="fill:none;stroke:#ffffff;stroke-linecap:square;stroke-linejoin:miter;"/>
   </g>
   <g id="patch_4">
    <path d="M 972 640.8 
L 972 86.4 
" style="fill:none;stroke:#ffffff;stroke-linecap:square;stroke-linejoin:miter;"/>
   </g>
   <g id="patch_5">
    <path d="M 135 640.8 
L 972 640.8 
" style="fill:none;stroke:#ffffff;stroke-linecap:square;stroke-linejoin:miter;"/>
   </g>
   <g id="patch_6">
    <path d="M 135 86.4 
L 972 86.4 
" style="fill:none;stroke:#ffffff;stroke-linecap:square;stroke-linejoin:miter;"/>
   </g>
   <g id="text_17">
    <!-- [rate / population] vs [total cases / population] -->
    <defs>
     <path d="M 8.59375 75.984375 
L 29.296875 75.984375 
L 29.296875 69 
L 17.578125 69 
L 17.578125 -6.203125 
L 29.296875 -6.203125 
L 29.296875 -13.1875 
L 8.59375 -13.1875 
z
" id="DejaVuSans-91"/>
     <path d="M 30.421875 75.984375 
L 30.421875 -13.1875 
L 9.71875 -13.1875 
L 9.71875 -6.203125 
L 21.390625 -6.203125 
L 21.390625 69 
L 9.71875 69 
L 9.71875 75.984375 
z
" id="DejaVuSans-93"/>
     <path d="M 2.984375 54.6875 
L 12.5 54.6875 
L 29.59375 8.796875 
L 46.6875 54.6875 
L 56.203125 54.6875 
L 35.6875 0 
L 23.484375 0 
z
" id="DejaVuSans-118"/>
    </defs>
    <g transform="translate(385.363125 80.4)scale(0.144 -0.144)">
     <use xlink:href="#DejaVuSans-91"/>
     <use x="39.013672" xlink:href="#DejaVuSans-114"/>
     <use x="80.126953" xlink:href="#DejaVuSans-97"/>
     <use x="141.40625" xlink:href="#DejaVuSans-116"/>
     <use x="180.615234" xlink:href="#DejaVuSans-101"/>
     <use x="242.138672" xlink:href="#DejaVuSans-32"/>
     <use x="273.925781" xlink:href="#DejaVuSans-47"/>
     <use x="307.617188" xlink:href="#DejaVuSans-32"/>
     <use x="339.404297" xlink:href="#DejaVuSans-112"/>
     <use x="402.880859" xlink:href="#DejaVuSans-111"/>
     <use x="464.0625" xlink:href="#DejaVuSans-112"/>
     <use x="527.539062" xlink:href="#DejaVuSans-117"/>
     <use x="590.917969" xlink:href="#DejaVuSans-108"/>
     <use x="618.701172" xlink:href="#DejaVuSans-97"/>
     <use x="679.980469" xlink:href="#DejaVuSans-116"/>
     <use x="719.189453" xlink:href="#DejaVuSans-105"/>
     <use x="746.972656" xlink:href="#DejaVuSans-111"/>
     <use x="808.154297" xlink:href="#DejaVuSans-110"/>
     <use x="871.533203" xlink:href="#DejaVuSans-93"/>
     <use x="910.546875" xlink:href="#DejaVuSans-32"/>
     <use x="942.333984" xlink:href="#DejaVuSans-118"/>
     <use x="1001.513672" xlink:href="#DejaVuSans-115"/>
     <use x="1053.613281" xlink:href="#DejaVuSans-32"/>
     <use x="1085.400391" xlink:href="#DejaVuSans-91"/>
     <use x="1124.414062" xlink:href="#DejaVuSans-116"/>
     <use x="1163.623047" xlink:href="#DejaVuSans-111"/>
     <use x="1224.804688" xlink:href="#DejaVuSans-116"/>
     <use x="1264.013672" xlink:href="#DejaVuSans-97"/>
     <use x="1325.292969" xlink:href="#DejaVuSans-108"/>
     <use x="1353.076172" xlink:href="#DejaVuSans-32"/>
     <use x="1384.863281" xlink:href="#DejaVuSans-99"/>
     <use x="1439.84375" xlink:href="#DejaVuSans-97"/>
     <use x="1501.123047" xlink:href="#DejaVuSans-115"/>
     <use x="1553.222656" xlink:href="#DejaVuSans-101"/>
     <use x="1614.746094" xlink:href="#DejaVuSans-115"/>
     <use x="1666.845703" xlink:href="#DejaVuSans-32"/>
     <use x="1698.632812" xlink:href="#DejaVuSans-47"/>
     <use x="1732.324219" xlink:href="#DejaVuSans-32"/>
     <use x="1764.111328" xlink:href="#DejaVuSans-112"/>
     <use x="1827.587891" xlink:href="#DejaVuSans-111"/>
     <use x="1888.769531" xlink:href="#DejaVuSans-112"/>
     <use x="1952.246094" xlink:href="#DejaVuSans-117"/>
     <use x="2015.625" xlink:href="#DejaVuSans-108"/>
     <use x="2043.408203" xlink:href="#DejaVuSans-97"/>
     <use x="2104.6875" xlink:href="#DejaVuSans-116"/>
     <use x="2143.896484" xlink:href="#DejaVuSans-105"/>
     <use x="2171.679688" xlink:href="#DejaVuSans-111"/>
     <use x="2232.861328" xlink:href="#DejaVuSans-110"/>
     <use x="2296.240234" xlink:href="#DejaVuSans-93"/>
    </g>
   </g>
   <g id="legend_1">
    <g id="patch_7">
     <path d="M 868.523438 211.825 
L 965 211.825 
Q 967 211.825 967 209.825 
L 967 93.4 
Q 967 91.4 965 91.4 
L 868.523438 91.4 
Q 866.523438 91.4 866.523438 93.4 
L 866.523438 209.825 
Q 866.523438 211.825 868.523438 211.825 
z
" style="fill:#e5e5e5;opacity:0.8;stroke:#cccccc;stroke-linejoin:miter;stroke-width:0.5;"/>
    </g>
    <g id="line2d_37">
     <path d="M 870.523438 99.498437 
L 890.523438 99.498437 
" style="fill:none;stroke:#e24a33;stroke-linecap:square;stroke-width:1.5;"/>
    </g>
    <g id="line2d_38"/>
    <g id="text_18">
     <!-- Australia -->
     <defs>
      <path d="M 34.1875 63.1875 
L 20.796875 26.90625 
L 47.609375 26.90625 
z
M 28.609375 72.90625 
L 39.796875 72.90625 
L 67.578125 0 
L 57.328125 0 
L 50.6875 18.703125 
L 17.828125 18.703125 
L 11.1875 0 
L 0.78125 0 
z
" id="DejaVuSans-65"/>
     </defs>
     <g transform="translate(898.523438 102.998437)scale(0.1 -0.1)">
      <use xlink:href="#DejaVuSans-65"/>
      <use x="68.408203" xlink:href="#DejaVuSans-117"/>
      <use x="131.787109" xlink:href="#DejaVuSans-115"/>
      <use x="183.886719" xlink:href="#DejaVuSans-116"/>
      <use x="223.095703" xlink:href="#DejaVuSans-114"/>
      <use x="264.208984" xlink:href="#DejaVuSans-97"/>
      <use x="325.488281" xlink:href="#DejaVuSans-108"/>
      <use x="353.271484" xlink:href="#DejaVuSans-105"/>
      <use x="381.054688" xlink:href="#DejaVuSans-97"/>
     </g>
    </g>
    <g id="line2d_39">
     <path d="M 870.523438 114.176562 
L 890.523438 114.176562 
" style="fill:none;stroke:#348abd;stroke-linecap:square;stroke-width:1.5;"/>
    </g>
    <g id="line2d_40"/>
    <g id="text_19">
     <!-- Poland -->
     <defs>
      <path d="M 19.671875 64.796875 
L 19.671875 37.40625 
L 32.078125 37.40625 
Q 38.96875 37.40625 42.71875 40.96875 
Q 46.484375 44.53125 46.484375 51.125 
Q 46.484375 57.671875 42.71875 61.234375 
Q 38.96875 64.796875 32.078125 64.796875 
z
M 9.8125 72.90625 
L 32.078125 72.90625 
Q 44.34375 72.90625 50.609375 67.359375 
Q 56.890625 61.8125 56.890625 51.125 
Q 56.890625 40.328125 50.609375 34.8125 
Q 44.34375 29.296875 32.078125 29.296875 
L 19.671875 29.296875 
L 19.671875 0 
L 9.8125 0 
z
" id="DejaVuSans-80"/>
     </defs>
     <g transform="translate(898.523438 117.676562)scale(0.1 -0.1)">
      <use xlink:href="#DejaVuSans-80"/>
      <use x="60.255859" xlink:href="#DejaVuSans-111"/>
      <use x="121.4375" xlink:href="#DejaVuSans-108"/>
      <use x="149.220703" xlink:href="#DejaVuSans-97"/>
      <use x="210.5" xlink:href="#DejaVuSans-110"/>
      <use x="273.878906" xlink:href="#DejaVuSans-100"/>
     </g>
    </g>
    <g id="line2d_41">
     <path d="M 870.523438 128.854687 
L 890.523438 128.854687 
" style="fill:none;stroke:#988ed5;stroke-linecap:square;stroke-width:1.5;"/>
    </g>
    <g id="line2d_42"/>
    <g id="text_20">
     <!-- Belarus -->
     <defs>
      <path d="M 19.671875 34.8125 
L 19.671875 8.109375 
L 35.5 8.109375 
Q 43.453125 8.109375 47.28125 11.40625 
Q 51.125 14.703125 51.125 21.484375 
Q 51.125 28.328125 47.28125 31.5625 
Q 43.453125 34.8125 35.5 34.8125 
z
M 19.671875 64.796875 
L 19.671875 42.828125 
L 34.28125 42.828125 
Q 41.5 42.828125 45.03125 45.53125 
Q 48.578125 48.25 48.578125 53.8125 
Q 48.578125 59.328125 45.03125 62.0625 
Q 41.5 64.796875 34.28125 64.796875 
z
M 9.8125 72.90625 
L 35.015625 72.90625 
Q 46.296875 72.90625 52.390625 68.21875 
Q 58.5 63.53125 58.5 54.890625 
Q 58.5 48.1875 55.375 44.234375 
Q 52.25 40.28125 46.1875 39.3125 
Q 53.46875 37.75 57.5 32.78125 
Q 61.53125 27.828125 61.53125 20.40625 
Q 61.53125 10.640625 54.890625 5.3125 
Q 48.25 0 35.984375 0 
L 9.8125 0 
z
" id="DejaVuSans-66"/>
     </defs>
     <g transform="translate(898.523438 132.354687)scale(0.1 -0.1)">
      <use xlink:href="#DejaVuSans-66"/>
      <use x="68.603516" xlink:href="#DejaVuSans-101"/>
      <use x="130.126953" xlink:href="#DejaVuSans-108"/>
      <use x="157.910156" xlink:href="#DejaVuSans-97"/>
      <use x="219.189453" xlink:href="#DejaVuSans-114"/>
      <use x="260.302734" xlink:href="#DejaVuSans-117"/>
      <use x="323.681641" xlink:href="#DejaVuSans-115"/>
     </g>
    </g>
    <g id="line2d_43">
     <path d="M 870.523438 143.532812 
L 890.523438 143.532812 
" style="fill:none;stroke:#777777;stroke-linecap:square;stroke-width:1.5;"/>
    </g>
    <g id="line2d_44"/>
    <g id="text_21">
     <!-- Switzerland -->
     <defs>
      <path d="M 53.515625 70.515625 
L 53.515625 60.890625 
Q 47.90625 63.578125 42.921875 64.890625 
Q 37.9375 66.21875 33.296875 66.21875 
Q 25.25 66.21875 20.875 63.09375 
Q 16.5 59.96875 16.5 54.203125 
Q 16.5 49.359375 19.40625 46.890625 
Q 22.3125 44.4375 30.421875 42.921875 
L 36.375 41.703125 
Q 47.40625 39.59375 52.65625 34.296875 
Q 57.90625 29 57.90625 20.125 
Q 57.90625 9.515625 50.796875 4.046875 
Q 43.703125 -1.421875 29.984375 -1.421875 
Q 24.8125 -1.421875 18.96875 -0.25 
Q 13.140625 0.921875 6.890625 3.21875 
L 6.890625 13.375 
Q 12.890625 10.015625 18.65625 8.296875 
Q 24.421875 6.59375 29.984375 6.59375 
Q 38.421875 6.59375 43.015625 9.90625 
Q 47.609375 13.234375 47.609375 19.390625 
Q 47.609375 24.75 44.3125 27.78125 
Q 41.015625 30.8125 33.5 32.328125 
L 27.484375 33.5 
Q 16.453125 35.6875 11.515625 40.375 
Q 6.59375 45.0625 6.59375 53.421875 
Q 6.59375 63.09375 13.40625 68.65625 
Q 20.21875 74.21875 32.171875 74.21875 
Q 37.3125 74.21875 42.625 73.28125 
Q 47.953125 72.359375 53.515625 70.515625 
z
" id="DejaVuSans-83"/>
      <path d="M 4.203125 54.6875 
L 13.1875 54.6875 
L 24.421875 12.015625 
L 35.59375 54.6875 
L 46.1875 54.6875 
L 57.421875 12.015625 
L 68.609375 54.6875 
L 77.59375 54.6875 
L 63.28125 0 
L 52.6875 0 
L 40.921875 44.828125 
L 29.109375 0 
L 18.5 0 
z
" id="DejaVuSans-119"/>
      <path d="M 5.515625 54.6875 
L 48.1875 54.6875 
L 48.1875 46.484375 
L 14.40625 7.171875 
L 48.1875 7.171875 
L 48.1875 0 
L 4.296875 0 
L 4.296875 8.203125 
L 38.09375 47.515625 
L 5.515625 47.515625 
z
" id="DejaVuSans-122"/>
     </defs>
     <g transform="translate(898.523438 147.032812)scale(0.1 -0.1)">
      <use xlink:href="#DejaVuSans-83"/>
      <use x="63.476562" xlink:href="#DejaVuSans-119"/>
      <use x="145.263672" xlink:href="#DejaVuSans-105"/>
      <use x="173.046875" xlink:href="#DejaVuSans-116"/>
      <use x="212.255859" xlink:href="#DejaVuSans-122"/>
      <use x="264.746094" xlink:href="#DejaVuSans-101"/>
      <use x="326.269531" xlink:href="#DejaVuSans-114"/>
      <use x="367.382812" xlink:href="#DejaVuSans-108"/>
      <use x="395.166016" xlink:href="#DejaVuSans-97"/>
      <use x="456.445312" xlink:href="#DejaVuSans-110"/>
      <use x="519.824219" xlink:href="#DejaVuSans-100"/>
     </g>
    </g>
    <g id="line2d_45">
     <path d="M 870.523438 158.210937 
L 890.523438 158.210937 
" style="fill:none;stroke:#fbc15e;stroke-linecap:square;stroke-width:1.5;"/>
    </g>
    <g id="line2d_46"/>
    <g id="text_22">
     <!-- Spain -->
     <g transform="translate(898.523438 161.710937)scale(0.1 -0.1)">
      <use xlink:href="#DejaVuSans-83"/>
      <use x="63.476562" xlink:href="#DejaVuSans-112"/>
      <use x="126.953125" xlink:href="#DejaVuSans-97"/>
      <use x="188.232422" xlink:href="#DejaVuSans-105"/>
      <use x="216.015625" xlink:href="#DejaVuSans-110"/>
     </g>
    </g>
    <g id="line2d_47">
     <path d="M 870.523438 172.889062 
L 890.523438 172.889062 
" style="fill:none;stroke:#8eba42;stroke-linecap:square;stroke-width:1.5;"/>
    </g>
    <g id="line2d_48"/>
    <g id="text_23">
     <!-- US -->
     <defs>
      <path d="M 8.6875 72.90625 
L 18.609375 72.90625 
L 18.609375 28.609375 
Q 18.609375 16.890625 22.84375 11.734375 
Q 27.09375 6.59375 36.625 6.59375 
Q 46.09375 6.59375 50.34375 11.734375 
Q 54.59375 16.890625 54.59375 28.609375 
L 54.59375 72.90625 
L 64.5 72.90625 
L 64.5 27.390625 
Q 64.5 13.140625 57.4375 5.859375 
Q 50.390625 -1.421875 36.625 -1.421875 
Q 22.796875 -1.421875 15.734375 5.859375 
Q 8.6875 13.140625 8.6875 27.390625 
z
" id="DejaVuSans-85"/>
     </defs>
     <g transform="translate(898.523438 176.389062)scale(0.1 -0.1)">
      <use xlink:href="#DejaVuSans-85"/>
      <use x="73.193359" xlink:href="#DejaVuSans-83"/>
     </g>
    </g>
    <g id="line2d_49">
     <path d="M 870.523438 187.567187 
L 890.523438 187.567187 
" style="fill:none;stroke:#ffb5b8;stroke-linecap:square;stroke-width:1.5;"/>
    </g>
    <g id="line2d_50"/>
    <g id="text_24">
     <!-- Germany -->
     <defs>
      <path d="M 59.515625 10.40625 
L 59.515625 29.984375 
L 43.40625 29.984375 
L 43.40625 38.09375 
L 69.28125 38.09375 
L 69.28125 6.78125 
Q 63.578125 2.734375 56.6875 0.65625 
Q 49.8125 -1.421875 42 -1.421875 
Q 24.90625 -1.421875 15.25 8.5625 
Q 5.609375 18.5625 5.609375 36.375 
Q 5.609375 54.25 15.25 64.234375 
Q 24.90625 74.21875 42 74.21875 
Q 49.125 74.21875 55.546875 72.453125 
Q 61.96875 70.703125 67.390625 67.28125 
L 67.390625 56.78125 
Q 61.921875 61.421875 55.765625 63.765625 
Q 49.609375 66.109375 42.828125 66.109375 
Q 29.4375 66.109375 22.71875 58.640625 
Q 16.015625 51.171875 16.015625 36.375 
Q 16.015625 21.625 22.71875 14.15625 
Q 29.4375 6.6875 42.828125 6.6875 
Q 48.046875 6.6875 52.140625 7.59375 
Q 56.25 8.5 59.515625 10.40625 
z
" id="DejaVuSans-71"/>
      <path d="M 32.171875 -5.078125 
Q 28.375 -14.84375 24.75 -17.8125 
Q 21.140625 -20.796875 15.09375 -20.796875 
L 7.90625 -20.796875 
L 7.90625 -13.28125 
L 13.1875 -13.28125 
Q 16.890625 -13.28125 18.9375 -11.515625 
Q 21 -9.765625 23.484375 -3.21875 
L 25.09375 0.875 
L 2.984375 54.6875 
L 12.5 54.6875 
L 29.59375 11.921875 
L 46.6875 54.6875 
L 56.203125 54.6875 
z
" id="DejaVuSans-121"/>
     </defs>
     <g transform="translate(898.523438 191.067187)scale(0.1 -0.1)">
      <use xlink:href="#DejaVuSans-71"/>
      <use x="77.490234" xlink:href="#DejaVuSans-101"/>
      <use x="139.013672" xlink:href="#DejaVuSans-114"/>
      <use x="180.111328" xlink:href="#DejaVuSans-109"/>
      <use x="277.523438" xlink:href="#DejaVuSans-97"/>
      <use x="338.802734" xlink:href="#DejaVuSans-110"/>
      <use x="402.181641" xlink:href="#DejaVuSans-121"/>
     </g>
    </g>
    <g id="line2d_51">
     <path d="M 870.523438 202.245312 
L 890.523438 202.245312 
" style="fill:none;stroke:#e24a33;stroke-linecap:square;stroke-width:1.5;"/>
    </g>
    <g id="line2d_52"/>
    <g id="text_25">
     <!-- Korea, South -->
     <defs>
      <path d="M 9.8125 72.90625 
L 19.671875 72.90625 
L 19.671875 42.09375 
L 52.390625 72.90625 
L 65.09375 72.90625 
L 28.90625 38.921875 
L 67.671875 0 
L 54.6875 0 
L 19.671875 35.109375 
L 19.671875 0 
L 9.8125 0 
z
" id="DejaVuSans-75"/>
      <path d="M 11.71875 12.40625 
L 22.015625 12.40625 
L 22.015625 4 
L 14.015625 -11.625 
L 7.71875 -11.625 
L 11.71875 4 
z
" id="DejaVuSans-44"/>
      <path d="M 54.890625 33.015625 
L 54.890625 0 
L 45.90625 0 
L 45.90625 32.71875 
Q 45.90625 40.484375 42.875 44.328125 
Q 39.84375 48.1875 33.796875 48.1875 
Q 26.515625 48.1875 22.3125 43.546875 
Q 18.109375 38.921875 18.109375 30.90625 
L 18.109375 0 
L 9.078125 0 
L 9.078125 75.984375 
L 18.109375 75.984375 
L 18.109375 46.1875 
Q 21.34375 51.125 25.703125 53.5625 
Q 30.078125 56 35.796875 56 
Q 45.21875 56 50.046875 50.171875 
Q 54.890625 44.34375 54.890625 33.015625 
z
" id="DejaVuSans-104"/>
     </defs>
     <g transform="translate(898.523438 205.745312)scale(0.1 -0.1)">
      <use xlink:href="#DejaVuSans-75"/>
      <use x="65.498047" xlink:href="#DejaVuSans-111"/>
      <use x="126.679688" xlink:href="#DejaVuSans-114"/>
      <use x="167.761719" xlink:href="#DejaVuSans-101"/>
      <use x="229.285156" xlink:href="#DejaVuSans-97"/>
      <use x="290.564453" xlink:href="#DejaVuSans-44"/>
      <use x="322.351562" xlink:href="#DejaVuSans-32"/>
      <use x="354.138672" xlink:href="#DejaVuSans-83"/>
      <use x="417.615234" xlink:href="#DejaVuSans-111"/>
      <use x="478.796875" xlink:href="#DejaVuSans-117"/>
      <use x="542.175781" xlink:href="#DejaVuSans-116"/>
      <use x="581.384766" xlink:href="#DejaVuSans-104"/>
     </g>
    </g>
   </g>
  </g>
 </g>
 <defs>
  <clipPath id="p26c0d4d60e">
   <rect height="554.4" width="837" x="135" y="86.4"/>
  </clipPath>
 </defs>
</svg>
