<?xml version="1.0" encoding="utf-8" standalone="no"?>
<!DOCTYPE svg PUBLIC "-//W3C//DTD SVG 1.1//EN"
  "http://www.w3.org/Graphics/SVG/1.1/DTD/svg11.dtd">
<!-- Created with matplotlib (https://matplotlib.org/) -->
<svg height="720pt" version="1.1" viewBox="0 0 1080 720" width="1080pt" xmlns="http://www.w3.org/2000/svg" xmlns:xlink="http://www.w3.org/1999/xlink">
 <defs>
  <style type="text/css">
*{stroke-linecap:butt;stroke-linejoin:round;}
  </style>
 </defs>
 <g id="figure_1">
  <g id="patch_1">
   <path d="M 0 720 
L 1080 720 
L 1080 0 
L 0 0 
z
" style="fill:#ffffff;"/>
  </g>
  <g id="axes_1">
   <g id="patch_2">
    <path d="M 135 640.8 
L 972 640.8 
L 972 86.4 
L 135 86.4 
z
" style="fill:#e5e5e5;"/>
   </g>
   <g id="matplotlib.axis_1">
    <g id="xtick_1">
     <g id="line2d_1">
      <path clip-path="url(#pb8c8a8a095)" d="M 135 640.8 
L 135 86.4 
" style="fill:none;stroke:#ffffff;stroke-linecap:square;stroke-width:0.8;"/>
     </g>
     <g id="line2d_2">
      <defs>
       <path d="M 0 0 
L 0 3.5 
" id="md6859f1eae" style="stroke:#555555;stroke-width:0.8;"/>
      </defs>
      <g>
       <use style="fill:#555555;stroke:#555555;stroke-width:0.8;" x="135" xlink:href="#md6859f1eae" y="640.8"/>
      </g>
     </g>
     <g id="text_1">
      <!-- $\mathdefault{10^{-6}}$ -->
      <defs>
       <path d="M 12.40625 8.296875 
L 28.515625 8.296875 
L 28.515625 63.921875 
L 10.984375 60.40625 
L 10.984375 69.390625 
L 28.421875 72.90625 
L 38.28125 72.90625 
L 38.28125 8.296875 
L 54.390625 8.296875 
L 54.390625 0 
L 12.40625 0 
z
" id="DejaVuSans-49"/>
       <path d="M 31.78125 66.40625 
Q 24.171875 66.40625 20.328125 58.90625 
Q 16.5 51.421875 16.5 36.375 
Q 16.5 21.390625 20.328125 13.890625 
Q 24.171875 6.390625 31.78125 6.390625 
Q 39.453125 6.390625 43.28125 13.890625 
Q 47.125 21.390625 47.125 36.375 
Q 47.125 51.421875 43.28125 58.90625 
Q 39.453125 66.40625 31.78125 66.40625 
z
M 31.78125 74.21875 
Q 44.046875 74.21875 50.515625 64.515625 
Q 56.984375 54.828125 56.984375 36.375 
Q 56.984375 17.96875 50.515625 8.265625 
Q 44.046875 -1.421875 31.78125 -1.421875 
Q 19.53125 -1.421875 13.0625 8.265625 
Q 6.59375 17.96875 6.59375 36.375 
Q 6.59375 54.828125 13.0625 64.515625 
Q 19.53125 74.21875 31.78125 74.21875 
z
" id="DejaVuSans-48"/>
       <path d="M 10.59375 35.5 
L 73.1875 35.5 
L 73.1875 27.203125 
L 10.59375 27.203125 
z
" id="DejaVuSans-8722"/>
       <path d="M 33.015625 40.375 
Q 26.375 40.375 22.484375 35.828125 
Q 18.609375 31.296875 18.609375 23.390625 
Q 18.609375 15.53125 22.484375 10.953125 
Q 26.375 6.390625 33.015625 6.390625 
Q 39.65625 6.390625 43.53125 10.953125 
Q 47.40625 15.53125 47.40625 23.390625 
Q 47.40625 31.296875 43.53125 35.828125 
Q 39.65625 40.375 33.015625 40.375 
z
M 52.59375 71.296875 
L 52.59375 62.3125 
Q 48.875 64.0625 45.09375 64.984375 
Q 41.3125 65.921875 37.59375 65.921875 
Q 27.828125 65.921875 22.671875 59.328125 
Q 17.53125 52.734375 16.796875 39.40625 
Q 19.671875 43.65625 24.015625 45.921875 
Q 28.375 48.1875 33.59375 48.1875 
Q 44.578125 48.1875 50.953125 41.515625 
Q 57.328125 34.859375 57.328125 23.390625 
Q 57.328125 12.15625 50.6875 5.359375 
Q 44.046875 -1.421875 33.015625 -1.421875 
Q 20.359375 -1.421875 13.671875 8.265625 
Q 6.984375 17.96875 6.984375 36.375 
Q 6.984375 53.65625 15.1875 63.9375 
Q 23.390625 74.21875 37.203125 74.21875 
Q 40.921875 74.21875 44.703125 73.484375 
Q 48.484375 72.75 52.59375 71.296875 
z
" id="DejaVuSans-54"/>
      </defs>
      <g style="fill:#555555;" transform="translate(123.25 655.398438)scale(0.1 -0.1)">
       <use transform="translate(0 0.765625)" xlink:href="#DejaVuSans-49"/>
       <use transform="translate(63.623047 0.765625)" xlink:href="#DejaVuSans-48"/>
       <use transform="translate(128.203125 39.046875)scale(0.7)" xlink:href="#DejaVuSans-8722"/>
       <use transform="translate(186.855469 39.046875)scale(0.7)" xlink:href="#DejaVuSans-54"/>
      </g>
     </g>
    </g>
    <g id="xtick_2">
     <g id="line2d_3">
      <path clip-path="url(#pb8c8a8a095)" d="M 345.682703 640.8 
L 345.682703 86.4 
" style="fill:none;stroke:#ffffff;stroke-linecap:square;stroke-width:0.8;"/>
     </g>
     <g id="line2d_4">
      <g>
       <use style="fill:#555555;stroke:#555555;stroke-width:0.8;" x="345.682703" xlink:href="#md6859f1eae" y="640.8"/>
      </g>
     </g>
     <g id="text_2">
      <!-- $\mathdefault{10^{-5}}$ -->
      <defs>
       <path d="M 10.796875 72.90625 
L 49.515625 72.90625 
L 49.515625 64.59375 
L 19.828125 64.59375 
L 19.828125 46.734375 
Q 21.96875 47.46875 24.109375 47.828125 
Q 26.265625 48.1875 28.421875 48.1875 
Q 40.625 48.1875 47.75 41.5 
Q 54.890625 34.8125 54.890625 23.390625 
Q 54.890625 11.625 47.5625 5.09375 
Q 40.234375 -1.421875 26.90625 -1.421875 
Q 22.3125 -1.421875 17.546875 -0.640625 
Q 12.796875 0.140625 7.71875 1.703125 
L 7.71875 11.625 
Q 12.109375 9.234375 16.796875 8.0625 
Q 21.484375 6.890625 26.703125 6.890625 
Q 35.15625 6.890625 40.078125 11.328125 
Q 45.015625 15.765625 45.015625 23.390625 
Q 45.015625 31 40.078125 35.4375 
Q 35.15625 39.890625 26.703125 39.890625 
Q 22.75 39.890625 18.8125 39.015625 
Q 14.890625 38.140625 10.796875 36.28125 
z
" id="DejaVuSans-53"/>
      </defs>
      <g style="fill:#555555;" transform="translate(333.932703 655.398438)scale(0.1 -0.1)">
       <use transform="translate(0 0.684375)" xlink:href="#DejaVuSans-49"/>
       <use transform="translate(63.623047 0.684375)" xlink:href="#DejaVuSans-48"/>
       <use transform="translate(128.203125 38.965625)scale(0.7)" xlink:href="#DejaVuSans-8722"/>
       <use transform="translate(186.855469 38.965625)scale(0.7)" xlink:href="#DejaVuSans-53"/>
      </g>
     </g>
    </g>
    <g id="xtick_3">
     <g id="line2d_5">
      <path clip-path="url(#pb8c8a8a095)" d="M 556.365407 640.8 
L 556.365407 86.4 
" style="fill:none;stroke:#ffffff;stroke-linecap:square;stroke-width:0.8;"/>
     </g>
     <g id="line2d_6">
      <g>
       <use style="fill:#555555;stroke:#555555;stroke-width:0.8;" x="556.365407" xlink:href="#md6859f1eae" y="640.8"/>
      </g>
     </g>
     <g id="text_3">
      <!-- $\mathdefault{10^{-4}}$ -->
      <defs>
       <path d="M 37.796875 64.3125 
L 12.890625 25.390625 
L 37.796875 25.390625 
z
M 35.203125 72.90625 
L 47.609375 72.90625 
L 47.609375 25.390625 
L 58.015625 25.390625 
L 58.015625 17.1875 
L 47.609375 17.1875 
L 47.609375 0 
L 37.796875 0 
L 37.796875 17.1875 
L 4.890625 17.1875 
L 4.890625 26.703125 
z
" id="DejaVuSans-52"/>
      </defs>
      <g style="fill:#555555;" transform="translate(544.615407 655.398438)scale(0.1 -0.1)">
       <use transform="translate(0 0.684375)" xlink:href="#DejaVuSans-49"/>
       <use transform="translate(63.623047 0.684375)" xlink:href="#DejaVuSans-48"/>
       <use transform="translate(128.203125 38.965625)scale(0.7)" xlink:href="#DejaVuSans-8722"/>
       <use transform="translate(186.855469 38.965625)scale(0.7)" xlink:href="#DejaVuSans-52"/>
      </g>
     </g>
    </g>
    <g id="xtick_4">
     <g id="line2d_7">
      <path clip-path="url(#pb8c8a8a095)" d="M 767.04811 640.8 
L 767.04811 86.4 
" style="fill:none;stroke:#ffffff;stroke-linecap:square;stroke-width:0.8;"/>
     </g>
     <g id="line2d_8">
      <g>
       <use style="fill:#555555;stroke:#555555;stroke-width:0.8;" x="767.04811" xlink:href="#md6859f1eae" y="640.8"/>
      </g>
     </g>
     <g id="text_4">
      <!-- $\mathdefault{10^{-3}}$ -->
      <defs>
       <path d="M 40.578125 39.3125 
Q 47.65625 37.796875 51.625 33 
Q 55.609375 28.21875 55.609375 21.1875 
Q 55.609375 10.40625 48.1875 4.484375 
Q 40.765625 -1.421875 27.09375 -1.421875 
Q 22.515625 -1.421875 17.65625 -0.515625 
Q 12.796875 0.390625 7.625 2.203125 
L 7.625 11.71875 
Q 11.71875 9.328125 16.59375 8.109375 
Q 21.484375 6.890625 26.8125 6.890625 
Q 36.078125 6.890625 40.9375 10.546875 
Q 45.796875 14.203125 45.796875 21.1875 
Q 45.796875 27.640625 41.28125 31.265625 
Q 36.765625 34.90625 28.71875 34.90625 
L 20.21875 34.90625 
L 20.21875 43.015625 
L 29.109375 43.015625 
Q 36.375 43.015625 40.234375 45.921875 
Q 44.09375 48.828125 44.09375 54.296875 
Q 44.09375 59.90625 40.109375 62.90625 
Q 36.140625 65.921875 28.71875 65.921875 
Q 24.65625 65.921875 20.015625 65.03125 
Q 15.375 64.15625 9.8125 62.3125 
L 9.8125 71.09375 
Q 15.4375 72.65625 20.34375 73.4375 
Q 25.25 74.21875 29.59375 74.21875 
Q 40.828125 74.21875 47.359375 69.109375 
Q 53.90625 64.015625 53.90625 55.328125 
Q 53.90625 49.265625 50.4375 45.09375 
Q 46.96875 40.921875 40.578125 39.3125 
z
" id="DejaVuSans-51"/>
      </defs>
      <g style="fill:#555555;" transform="translate(755.29811 655.398438)scale(0.1 -0.1)">
       <use transform="translate(0 0.765625)" xlink:href="#DejaVuSans-49"/>
       <use transform="translate(63.623047 0.765625)" xlink:href="#DejaVuSans-48"/>
       <use transform="translate(128.203125 39.046875)scale(0.7)" xlink:href="#DejaVuSans-8722"/>
       <use transform="translate(186.855469 39.046875)scale(0.7)" xlink:href="#DejaVuSans-51"/>
      </g>
     </g>
    </g>
    <g id="xtick_5">
     <g id="line2d_9">
      <defs>
       <path d="M 0 0 
L 0 2 
" id="m963bf94afb" style="stroke:#555555;stroke-width:0.6;"/>
      </defs>
      <g>
       <use style="fill:#555555;stroke:#555555;stroke-width:0.6;" x="198.421813" xlink:href="#m963bf94afb" y="640.8"/>
      </g>
     </g>
    </g>
    <g id="xtick_6">
     <g id="line2d_10">
      <g>
       <use style="fill:#555555;stroke:#555555;stroke-width:0.6;" x="235.521196" xlink:href="#m963bf94afb" y="640.8"/>
      </g>
     </g>
    </g>
    <g id="xtick_7">
     <g id="line2d_11">
      <g>
       <use style="fill:#555555;stroke:#555555;stroke-width:0.6;" x="261.843627" xlink:href="#m963bf94afb" y="640.8"/>
      </g>
     </g>
    </g>
    <g id="xtick_8">
     <g id="line2d_12">
      <g>
       <use style="fill:#555555;stroke:#555555;stroke-width:0.6;" x="282.26089" xlink:href="#m963bf94afb" y="640.8"/>
      </g>
     </g>
    </g>
    <g id="xtick_9">
     <g id="line2d_13">
      <g>
       <use style="fill:#555555;stroke:#555555;stroke-width:0.6;" x="298.943009" xlink:href="#m963bf94afb" y="640.8"/>
      </g>
     </g>
    </g>
    <g id="xtick_10">
     <g id="line2d_14">
      <g>
       <use style="fill:#555555;stroke:#555555;stroke-width:0.6;" x="313.04754" xlink:href="#m963bf94afb" y="640.8"/>
      </g>
     </g>
    </g>
    <g id="xtick_11">
     <g id="line2d_15">
      <g>
       <use style="fill:#555555;stroke:#555555;stroke-width:0.6;" x="325.26544" xlink:href="#m963bf94afb" y="640.8"/>
      </g>
     </g>
    </g>
    <g id="xtick_12">
     <g id="line2d_16">
      <g>
       <use style="fill:#555555;stroke:#555555;stroke-width:0.6;" x="336.042392" xlink:href="#m963bf94afb" y="640.8"/>
      </g>
     </g>
    </g>
    <g id="xtick_13">
     <g id="line2d_17">
      <g>
       <use style="fill:#555555;stroke:#555555;stroke-width:0.6;" x="409.104517" xlink:href="#m963bf94afb" y="640.8"/>
      </g>
     </g>
    </g>
    <g id="xtick_14">
     <g id="line2d_18">
      <g>
       <use style="fill:#555555;stroke:#555555;stroke-width:0.6;" x="446.203899" xlink:href="#m963bf94afb" y="640.8"/>
      </g>
     </g>
    </g>
    <g id="xtick_15">
     <g id="line2d_19">
      <g>
       <use style="fill:#555555;stroke:#555555;stroke-width:0.6;" x="472.52633" xlink:href="#m963bf94afb" y="640.8"/>
      </g>
     </g>
    </g>
    <g id="xtick_16">
     <g id="line2d_20">
      <g>
       <use style="fill:#555555;stroke:#555555;stroke-width:0.6;" x="492.943594" xlink:href="#m963bf94afb" y="640.8"/>
      </g>
     </g>
    </g>
    <g id="xtick_17">
     <g id="line2d_21">
      <g>
       <use style="fill:#555555;stroke:#555555;stroke-width:0.6;" x="509.625713" xlink:href="#m963bf94afb" y="640.8"/>
      </g>
     </g>
    </g>
    <g id="xtick_18">
     <g id="line2d_22">
      <g>
       <use style="fill:#555555;stroke:#555555;stroke-width:0.6;" x="523.730243" xlink:href="#m963bf94afb" y="640.8"/>
      </g>
     </g>
    </g>
    <g id="xtick_19">
     <g id="line2d_23">
      <g>
       <use style="fill:#555555;stroke:#555555;stroke-width:0.6;" x="535.948143" xlink:href="#m963bf94afb" y="640.8"/>
      </g>
     </g>
    </g>
    <g id="xtick_20">
     <g id="line2d_24">
      <g>
       <use style="fill:#555555;stroke:#555555;stroke-width:0.6;" x="546.725095" xlink:href="#m963bf94afb" y="640.8"/>
      </g>
     </g>
    </g>
    <g id="xtick_21">
     <g id="line2d_25">
      <g>
       <use style="fill:#555555;stroke:#555555;stroke-width:0.6;" x="619.78722" xlink:href="#m963bf94afb" y="640.8"/>
      </g>
     </g>
    </g>
    <g id="xtick_22">
     <g id="line2d_26">
      <g>
       <use style="fill:#555555;stroke:#555555;stroke-width:0.6;" x="656.886603" xlink:href="#m963bf94afb" y="640.8"/>
      </g>
     </g>
    </g>
    <g id="xtick_23">
     <g id="line2d_27">
      <g>
       <use style="fill:#555555;stroke:#555555;stroke-width:0.6;" x="683.209034" xlink:href="#m963bf94afb" y="640.8"/>
      </g>
     </g>
    </g>
    <g id="xtick_24">
     <g id="line2d_28">
      <g>
       <use style="fill:#555555;stroke:#555555;stroke-width:0.6;" x="703.626297" xlink:href="#m963bf94afb" y="640.8"/>
      </g>
     </g>
    </g>
    <g id="xtick_25">
     <g id="line2d_29">
      <g>
       <use style="fill:#555555;stroke:#555555;stroke-width:0.6;" x="720.308416" xlink:href="#m963bf94afb" y="640.8"/>
      </g>
     </g>
    </g>
    <g id="xtick_26">
     <g id="line2d_30">
      <g>
       <use style="fill:#555555;stroke:#555555;stroke-width:0.6;" x="734.412947" xlink:href="#m963bf94afb" y="640.8"/>
      </g>
     </g>
    </g>
    <g id="xtick_27">
     <g id="line2d_31">
      <g>
       <use style="fill:#555555;stroke:#555555;stroke-width:0.6;" x="746.630847" xlink:href="#m963bf94afb" y="640.8"/>
      </g>
     </g>
    </g>
    <g id="xtick_28">
     <g id="line2d_32">
      <g>
       <use style="fill:#555555;stroke:#555555;stroke-width:0.6;" x="757.407799" xlink:href="#m963bf94afb" y="640.8"/>
      </g>
     </g>
    </g>
    <g id="xtick_29">
     <g id="line2d_33">
      <g>
       <use style="fill:#555555;stroke:#555555;stroke-width:0.6;" x="830.469924" xlink:href="#m963bf94afb" y="640.8"/>
      </g>
     </g>
    </g>
    <g id="xtick_30">
     <g id="line2d_34">
      <g>
       <use style="fill:#555555;stroke:#555555;stroke-width:0.6;" x="867.569306" xlink:href="#m963bf94afb" y="640.8"/>
      </g>
     </g>
    </g>
    <g id="xtick_31">
     <g id="line2d_35">
      <g>
       <use style="fill:#555555;stroke:#555555;stroke-width:0.6;" x="893.891737" xlink:href="#m963bf94afb" y="640.8"/>
      </g>
     </g>
    </g>
    <g id="xtick_32">
     <g id="line2d_36">
      <g>
       <use style="fill:#555555;stroke:#555555;stroke-width:0.6;" x="914.309001" xlink:href="#m963bf94afb" y="640.8"/>
      </g>
     </g>
    </g>
    <g id="xtick_33">
     <g id="line2d_37">
      <g>
       <use style="fill:#555555;stroke:#555555;stroke-width:0.6;" x="930.991119" xlink:href="#m963bf94afb" y="640.8"/>
      </g>
     </g>
    </g>
    <g id="xtick_34">
     <g id="line2d_38">
      <g>
       <use style="fill:#555555;stroke:#555555;stroke-width:0.6;" x="945.09565" xlink:href="#m963bf94afb" y="640.8"/>
      </g>
     </g>
    </g>
    <g id="xtick_35">
     <g id="line2d_39">
      <g>
       <use style="fill:#555555;stroke:#555555;stroke-width:0.6;" x="957.31355" xlink:href="#m963bf94afb" y="640.8"/>
      </g>
     </g>
    </g>
    <g id="xtick_36">
     <g id="line2d_40">
      <g>
       <use style="fill:#555555;stroke:#555555;stroke-width:0.6;" x="968.090502" xlink:href="#m963bf94afb" y="640.8"/>
      </g>
     </g>
    </g>
    <g id="text_5">
     <!-- confirmed cases / population -->
     <defs>
      <path d="M 48.78125 52.59375 
L 48.78125 44.1875 
Q 44.96875 46.296875 41.140625 47.34375 
Q 37.3125 48.390625 33.40625 48.390625 
Q 24.65625 48.390625 19.8125 42.84375 
Q 14.984375 37.3125 14.984375 27.296875 
Q 14.984375 17.28125 19.8125 11.734375 
Q 24.65625 6.203125 33.40625 6.203125 
Q 37.3125 6.203125 41.140625 7.25 
Q 44.96875 8.296875 48.78125 10.40625 
L 48.78125 2.09375 
Q 45.015625 0.34375 40.984375 -0.53125 
Q 36.96875 -1.421875 32.421875 -1.421875 
Q 20.0625 -1.421875 12.78125 6.34375 
Q 5.515625 14.109375 5.515625 27.296875 
Q 5.515625 40.671875 12.859375 48.328125 
Q 20.21875 56 33.015625 56 
Q 37.15625 56 41.109375 55.140625 
Q 45.0625 54.296875 48.78125 52.59375 
z
" id="DejaVuSans-99"/>
      <path d="M 30.609375 48.390625 
Q 23.390625 48.390625 19.1875 42.75 
Q 14.984375 37.109375 14.984375 27.296875 
Q 14.984375 17.484375 19.15625 11.84375 
Q 23.34375 6.203125 30.609375 6.203125 
Q 37.796875 6.203125 41.984375 11.859375 
Q 46.1875 17.53125 46.1875 27.296875 
Q 46.1875 37.015625 41.984375 42.703125 
Q 37.796875 48.390625 30.609375 48.390625 
z
M 30.609375 56 
Q 42.328125 56 49.015625 48.375 
Q 55.71875 40.765625 55.71875 27.296875 
Q 55.71875 13.875 49.015625 6.21875 
Q 42.328125 -1.421875 30.609375 -1.421875 
Q 18.84375 -1.421875 12.171875 6.21875 
Q 5.515625 13.875 5.515625 27.296875 
Q 5.515625 40.765625 12.171875 48.375 
Q 18.84375 56 30.609375 56 
z
" id="DejaVuSans-111"/>
      <path d="M 54.890625 33.015625 
L 54.890625 0 
L 45.90625 0 
L 45.90625 32.71875 
Q 45.90625 40.484375 42.875 44.328125 
Q 39.84375 48.1875 33.796875 48.1875 
Q 26.515625 48.1875 22.3125 43.546875 
Q 18.109375 38.921875 18.109375 30.90625 
L 18.109375 0 
L 9.078125 0 
L 9.078125 54.6875 
L 18.109375 54.6875 
L 18.109375 46.1875 
Q 21.34375 51.125 25.703125 53.5625 
Q 30.078125 56 35.796875 56 
Q 45.21875 56 50.046875 50.171875 
Q 54.890625 44.34375 54.890625 33.015625 
z
" id="DejaVuSans-110"/>
      <path d="M 37.109375 75.984375 
L 37.109375 68.5 
L 28.515625 68.5 
Q 23.6875 68.5 21.796875 66.546875 
Q 19.921875 64.59375 19.921875 59.515625 
L 19.921875 54.6875 
L 34.71875 54.6875 
L 34.71875 47.703125 
L 19.921875 47.703125 
L 19.921875 0 
L 10.890625 0 
L 10.890625 47.703125 
L 2.296875 47.703125 
L 2.296875 54.6875 
L 10.890625 54.6875 
L 10.890625 58.5 
Q 10.890625 67.625 15.140625 71.796875 
Q 19.390625 75.984375 28.609375 75.984375 
z
" id="DejaVuSans-102"/>
      <path d="M 9.421875 54.6875 
L 18.40625 54.6875 
L 18.40625 0 
L 9.421875 0 
z
M 9.421875 75.984375 
L 18.40625 75.984375 
L 18.40625 64.59375 
L 9.421875 64.59375 
z
" id="DejaVuSans-105"/>
      <path d="M 41.109375 46.296875 
Q 39.59375 47.171875 37.8125 47.578125 
Q 36.03125 48 33.890625 48 
Q 26.265625 48 22.1875 43.046875 
Q 18.109375 38.09375 18.109375 28.8125 
L 18.109375 0 
L 9.078125 0 
L 9.078125 54.6875 
L 18.109375 54.6875 
L 18.109375 46.1875 
Q 20.953125 51.171875 25.484375 53.578125 
Q 30.03125 56 36.53125 56 
Q 37.453125 56 38.578125 55.875 
Q 39.703125 55.765625 41.0625 55.515625 
z
" id="DejaVuSans-114"/>
      <path d="M 52 44.1875 
Q 55.375 50.25 60.0625 53.125 
Q 64.75 56 71.09375 56 
Q 79.640625 56 84.28125 50.015625 
Q 88.921875 44.046875 88.921875 33.015625 
L 88.921875 0 
L 79.890625 0 
L 79.890625 32.71875 
Q 79.890625 40.578125 77.09375 44.375 
Q 74.3125 48.1875 68.609375 48.1875 
Q 61.625 48.1875 57.5625 43.546875 
Q 53.515625 38.921875 53.515625 30.90625 
L 53.515625 0 
L 44.484375 0 
L 44.484375 32.71875 
Q 44.484375 40.625 41.703125 44.40625 
Q 38.921875 48.1875 33.109375 48.1875 
Q 26.21875 48.1875 22.15625 43.53125 
Q 18.109375 38.875 18.109375 30.90625 
L 18.109375 0 
L 9.078125 0 
L 9.078125 54.6875 
L 18.109375 54.6875 
L 18.109375 46.1875 
Q 21.1875 51.21875 25.484375 53.609375 
Q 29.78125 56 35.6875 56 
Q 41.65625 56 45.828125 52.96875 
Q 50 49.953125 52 44.1875 
z
" id="DejaVuSans-109"/>
      <path d="M 56.203125 29.59375 
L 56.203125 25.203125 
L 14.890625 25.203125 
Q 15.484375 15.921875 20.484375 11.0625 
Q 25.484375 6.203125 34.421875 6.203125 
Q 39.59375 6.203125 44.453125 7.46875 
Q 49.3125 8.734375 54.109375 11.28125 
L 54.109375 2.78125 
Q 49.265625 0.734375 44.1875 -0.34375 
Q 39.109375 -1.421875 33.890625 -1.421875 
Q 20.796875 -1.421875 13.15625 6.1875 
Q 5.515625 13.8125 5.515625 26.8125 
Q 5.515625 40.234375 12.765625 48.109375 
Q 20.015625 56 32.328125 56 
Q 43.359375 56 49.78125 48.890625 
Q 56.203125 41.796875 56.203125 29.59375 
z
M 47.21875 32.234375 
Q 47.125 39.59375 43.09375 43.984375 
Q 39.0625 48.390625 32.421875 48.390625 
Q 24.90625 48.390625 20.390625 44.140625 
Q 15.875 39.890625 15.1875 32.171875 
z
" id="DejaVuSans-101"/>
      <path d="M 45.40625 46.390625 
L 45.40625 75.984375 
L 54.390625 75.984375 
L 54.390625 0 
L 45.40625 0 
L 45.40625 8.203125 
Q 42.578125 3.328125 38.25 0.953125 
Q 33.9375 -1.421875 27.875 -1.421875 
Q 17.96875 -1.421875 11.734375 6.484375 
Q 5.515625 14.40625 5.515625 27.296875 
Q 5.515625 40.1875 11.734375 48.09375 
Q 17.96875 56 27.875 56 
Q 33.9375 56 38.25 53.625 
Q 42.578125 51.265625 45.40625 46.390625 
z
M 14.796875 27.296875 
Q 14.796875 17.390625 18.875 11.75 
Q 22.953125 6.109375 30.078125 6.109375 
Q 37.203125 6.109375 41.296875 11.75 
Q 45.40625 17.390625 45.40625 27.296875 
Q 45.40625 37.203125 41.296875 42.84375 
Q 37.203125 48.484375 30.078125 48.484375 
Q 22.953125 48.484375 18.875 42.84375 
Q 14.796875 37.203125 14.796875 27.296875 
z
" id="DejaVuSans-100"/>
      <path id="DejaVuSans-32"/>
      <path d="M 34.28125 27.484375 
Q 23.390625 27.484375 19.1875 25 
Q 14.984375 22.515625 14.984375 16.5 
Q 14.984375 11.71875 18.140625 8.90625 
Q 21.296875 6.109375 26.703125 6.109375 
Q 34.1875 6.109375 38.703125 11.40625 
Q 43.21875 16.703125 43.21875 25.484375 
L 43.21875 27.484375 
z
M 52.203125 31.203125 
L 52.203125 0 
L 43.21875 0 
L 43.21875 8.296875 
Q 40.140625 3.328125 35.546875 0.953125 
Q 30.953125 -1.421875 24.3125 -1.421875 
Q 15.921875 -1.421875 10.953125 3.296875 
Q 6 8.015625 6 15.921875 
Q 6 25.140625 12.171875 29.828125 
Q 18.359375 34.515625 30.609375 34.515625 
L 43.21875 34.515625 
L 43.21875 35.40625 
Q 43.21875 41.609375 39.140625 45 
Q 35.0625 48.390625 27.6875 48.390625 
Q 23 48.390625 18.546875 47.265625 
Q 14.109375 46.140625 10.015625 43.890625 
L 10.015625 52.203125 
Q 14.9375 54.109375 19.578125 55.046875 
Q 24.21875 56 28.609375 56 
Q 40.484375 56 46.34375 49.84375 
Q 52.203125 43.703125 52.203125 31.203125 
z
" id="DejaVuSans-97"/>
      <path d="M 44.28125 53.078125 
L 44.28125 44.578125 
Q 40.484375 46.53125 36.375 47.5 
Q 32.28125 48.484375 27.875 48.484375 
Q 21.1875 48.484375 17.84375 46.4375 
Q 14.5 44.390625 14.5 40.28125 
Q 14.5 37.15625 16.890625 35.375 
Q 19.28125 33.59375 26.515625 31.984375 
L 29.59375 31.296875 
Q 39.15625 29.25 43.1875 25.515625 
Q 47.21875 21.78125 47.21875 15.09375 
Q 47.21875 7.46875 41.1875 3.015625 
Q 35.15625 -1.421875 24.609375 -1.421875 
Q 20.21875 -1.421875 15.453125 -0.5625 
Q 10.6875 0.296875 5.421875 2 
L 5.421875 11.28125 
Q 10.40625 8.6875 15.234375 7.390625 
Q 20.0625 6.109375 24.8125 6.109375 
Q 31.15625 6.109375 34.5625 8.28125 
Q 37.984375 10.453125 37.984375 14.40625 
Q 37.984375 18.0625 35.515625 20.015625 
Q 33.0625 21.96875 24.703125 23.78125 
L 21.578125 24.515625 
Q 13.234375 26.265625 9.515625 29.90625 
Q 5.8125 33.546875 5.8125 39.890625 
Q 5.8125 47.609375 11.28125 51.796875 
Q 16.75 56 26.8125 56 
Q 31.78125 56 36.171875 55.265625 
Q 40.578125 54.546875 44.28125 53.078125 
z
" id="DejaVuSans-115"/>
      <path d="M 25.390625 72.90625 
L 33.6875 72.90625 
L 8.296875 -9.28125 
L 0 -9.28125 
z
" id="DejaVuSans-47"/>
      <path d="M 18.109375 8.203125 
L 18.109375 -20.796875 
L 9.078125 -20.796875 
L 9.078125 54.6875 
L 18.109375 54.6875 
L 18.109375 46.390625 
Q 20.953125 51.265625 25.265625 53.625 
Q 29.59375 56 35.59375 56 
Q 45.5625 56 51.78125 48.09375 
Q 58.015625 40.1875 58.015625 27.296875 
Q 58.015625 14.40625 51.78125 6.484375 
Q 45.5625 -1.421875 35.59375 -1.421875 
Q 29.59375 -1.421875 25.265625 0.953125 
Q 20.953125 3.328125 18.109375 8.203125 
z
M 48.6875 27.296875 
Q 48.6875 37.203125 44.609375 42.84375 
Q 40.53125 48.484375 33.40625 48.484375 
Q 26.265625 48.484375 22.1875 42.84375 
Q 18.109375 37.203125 18.109375 27.296875 
Q 18.109375 17.390625 22.1875 11.75 
Q 26.265625 6.109375 33.40625 6.109375 
Q 40.53125 6.109375 44.609375 11.75 
Q 48.6875 17.390625 48.6875 27.296875 
z
" id="DejaVuSans-112"/>
      <path d="M 8.5 21.578125 
L 8.5 54.6875 
L 17.484375 54.6875 
L 17.484375 21.921875 
Q 17.484375 14.15625 20.5 10.265625 
Q 23.53125 6.390625 29.59375 6.390625 
Q 36.859375 6.390625 41.078125 11.03125 
Q 45.3125 15.671875 45.3125 23.6875 
L 45.3125 54.6875 
L 54.296875 54.6875 
L 54.296875 0 
L 45.3125 0 
L 45.3125 8.40625 
Q 42.046875 3.421875 37.71875 1 
Q 33.40625 -1.421875 27.6875 -1.421875 
Q 18.265625 -1.421875 13.375 4.4375 
Q 8.5 10.296875 8.5 21.578125 
z
M 31.109375 56 
z
" id="DejaVuSans-117"/>
      <path d="M 9.421875 75.984375 
L 18.40625 75.984375 
L 18.40625 0 
L 9.421875 0 
z
" id="DejaVuSans-108"/>
      <path d="M 18.3125 70.21875 
L 18.3125 54.6875 
L 36.8125 54.6875 
L 36.8125 47.703125 
L 18.3125 47.703125 
L 18.3125 18.015625 
Q 18.3125 11.328125 20.140625 9.421875 
Q 21.96875 7.515625 27.59375 7.515625 
L 36.8125 7.515625 
L 36.8125 0 
L 27.59375 0 
Q 17.1875 0 13.234375 3.875 
Q 9.28125 7.765625 9.28125 18.015625 
L 9.28125 47.703125 
L 2.6875 47.703125 
L 2.6875 54.6875 
L 9.28125 54.6875 
L 9.28125 70.21875 
z
" id="DejaVuSans-116"/>
     </defs>
     <g style="fill:#555555;" transform="translate(466.547813 670.59625)scale(0.12 -0.12)">
      <use xlink:href="#DejaVuSans-99"/>
      <use x="54.980469" xlink:href="#DejaVuSans-111"/>
      <use x="116.162109" xlink:href="#DejaVuSans-110"/>
      <use x="179.541016" xlink:href="#DejaVuSans-102"/>
      <use x="214.746094" xlink:href="#DejaVuSans-105"/>
      <use x="242.529297" xlink:href="#DejaVuSans-114"/>
      <use x="283.626953" xlink:href="#DejaVuSans-109"/>
      <use x="381.039062" xlink:href="#DejaVuSans-101"/>
      <use x="442.5625" xlink:href="#DejaVuSans-100"/>
      <use x="506.039062" xlink:href="#DejaVuSans-32"/>
      <use x="537.826172" xlink:href="#DejaVuSans-99"/>
      <use x="592.806641" xlink:href="#DejaVuSans-97"/>
      <use x="654.085938" xlink:href="#DejaVuSans-115"/>
      <use x="706.185547" xlink:href="#DejaVuSans-101"/>
      <use x="767.708984" xlink:href="#DejaVuSans-115"/>
      <use x="819.808594" xlink:href="#DejaVuSans-32"/>
      <use x="851.595703" xlink:href="#DejaVuSans-47"/>
      <use x="885.287109" xlink:href="#DejaVuSans-32"/>
      <use x="917.074219" xlink:href="#DejaVuSans-112"/>
      <use x="980.550781" xlink:href="#DejaVuSans-111"/>
      <use x="1041.732422" xlink:href="#DejaVuSans-112"/>
      <use x="1105.208984" xlink:href="#DejaVuSans-117"/>
      <use x="1168.587891" xlink:href="#DejaVuSans-108"/>
      <use x="1196.371094" xlink:href="#DejaVuSans-97"/>
      <use x="1257.650391" xlink:href="#DejaVuSans-116"/>
      <use x="1296.859375" xlink:href="#DejaVuSans-105"/>
      <use x="1324.642578" xlink:href="#DejaVuSans-111"/>
      <use x="1385.824219" xlink:href="#DejaVuSans-110"/>
     </g>
    </g>
   </g>
   <g id="matplotlib.axis_2">
    <g id="ytick_1">
     <g id="line2d_41">
      <path clip-path="url(#pb8c8a8a095)" d="M 135 604.024888 
L 972 604.024888 
" style="fill:none;stroke:#ffffff;stroke-linecap:square;stroke-width:0.8;"/>
     </g>
     <g id="line2d_42">
      <defs>
       <path d="M 0 0 
L -3.5 0 
" id="meec962d993" style="stroke:#555555;stroke-width:0.8;"/>
      </defs>
      <g>
       <use style="fill:#555555;stroke:#555555;stroke-width:0.8;" x="135" xlink:href="#meec962d993" y="604.024888"/>
      </g>
     </g>
     <g id="text_6">
      <!-- $\mathdefault{10^{-7}}$ -->
      <defs>
       <path d="M 8.203125 72.90625 
L 55.078125 72.90625 
L 55.078125 68.703125 
L 28.609375 0 
L 18.3125 0 
L 43.21875 64.59375 
L 8.203125 64.59375 
z
" id="DejaVuSans-55"/>
      </defs>
      <g style="fill:#555555;" transform="translate(104.5 607.824106)scale(0.1 -0.1)">
       <use transform="translate(0 0.684375)" xlink:href="#DejaVuSans-49"/>
       <use transform="translate(63.623047 0.684375)" xlink:href="#DejaVuSans-48"/>
       <use transform="translate(128.203125 38.965625)scale(0.7)" xlink:href="#DejaVuSans-8722"/>
       <use transform="translate(186.855469 38.965625)scale(0.7)" xlink:href="#DejaVuSans-55"/>
      </g>
     </g>
    </g>
    <g id="ytick_2">
     <g id="line2d_43">
      <path clip-path="url(#pb8c8a8a095)" d="M 135 481.860609 
L 972 481.860609 
" style="fill:none;stroke:#ffffff;stroke-linecap:square;stroke-width:0.8;"/>
     </g>
     <g id="line2d_44">
      <g>
       <use style="fill:#555555;stroke:#555555;stroke-width:0.8;" x="135" xlink:href="#meec962d993" y="481.860609"/>
      </g>
     </g>
     <g id="text_7">
      <!-- $\mathdefault{10^{-6}}$ -->
      <g style="fill:#555555;" transform="translate(104.5 485.659828)scale(0.1 -0.1)">
       <use transform="translate(0 0.765625)" xlink:href="#DejaVuSans-49"/>
       <use transform="translate(63.623047 0.765625)" xlink:href="#DejaVuSans-48"/>
       <use transform="translate(128.203125 39.046875)scale(0.7)" xlink:href="#DejaVuSans-8722"/>
       <use transform="translate(186.855469 39.046875)scale(0.7)" xlink:href="#DejaVuSans-54"/>
      </g>
     </g>
    </g>
    <g id="ytick_3">
     <g id="line2d_45">
      <path clip-path="url(#pb8c8a8a095)" d="M 135 359.69633 
L 972 359.69633 
" style="fill:none;stroke:#ffffff;stroke-linecap:square;stroke-width:0.8;"/>
     </g>
     <g id="line2d_46">
      <g>
       <use style="fill:#555555;stroke:#555555;stroke-width:0.8;" x="135" xlink:href="#meec962d993" y="359.69633"/>
      </g>
     </g>
     <g id="text_8">
      <!-- $\mathdefault{10^{-5}}$ -->
      <g style="fill:#555555;" transform="translate(104.5 363.495549)scale(0.1 -0.1)">
       <use transform="translate(0 0.684375)" xlink:href="#DejaVuSans-49"/>
       <use transform="translate(63.623047 0.684375)" xlink:href="#DejaVuSans-48"/>
       <use transform="translate(128.203125 38.965625)scale(0.7)" xlink:href="#DejaVuSans-8722"/>
       <use transform="translate(186.855469 38.965625)scale(0.7)" xlink:href="#DejaVuSans-53"/>
      </g>
     </g>
    </g>
    <g id="ytick_4">
     <g id="line2d_47">
      <path clip-path="url(#pb8c8a8a095)" d="M 135 237.532051 
L 972 237.532051 
" style="fill:none;stroke:#ffffff;stroke-linecap:square;stroke-width:0.8;"/>
     </g>
     <g id="line2d_48">
      <g>
       <use style="fill:#555555;stroke:#555555;stroke-width:0.8;" x="135" xlink:href="#meec962d993" y="237.532051"/>
      </g>
     </g>
     <g id="text_9">
      <!-- $\mathdefault{10^{-4}}$ -->
      <g style="fill:#555555;" transform="translate(104.5 241.33127)scale(0.1 -0.1)">
       <use transform="translate(0 0.684375)" xlink:href="#DejaVuSans-49"/>
       <use transform="translate(63.623047 0.684375)" xlink:href="#DejaVuSans-48"/>
       <use transform="translate(128.203125 38.965625)scale(0.7)" xlink:href="#DejaVuSans-8722"/>
       <use transform="translate(186.855469 38.965625)scale(0.7)" xlink:href="#DejaVuSans-52"/>
      </g>
     </g>
    </g>
    <g id="ytick_5">
     <g id="line2d_49">
      <path clip-path="url(#pb8c8a8a095)" d="M 135 115.367772 
L 972 115.367772 
" style="fill:none;stroke:#ffffff;stroke-linecap:square;stroke-width:0.8;"/>
     </g>
     <g id="line2d_50">
      <g>
       <use style="fill:#555555;stroke:#555555;stroke-width:0.8;" x="135" xlink:href="#meec962d993" y="115.367772"/>
      </g>
     </g>
     <g id="text_10">
      <!-- $\mathdefault{10^{-3}}$ -->
      <g style="fill:#555555;" transform="translate(104.5 119.166991)scale(0.1 -0.1)">
       <use transform="translate(0 0.765625)" xlink:href="#DejaVuSans-49"/>
       <use transform="translate(63.623047 0.765625)" xlink:href="#DejaVuSans-48"/>
       <use transform="translate(128.203125 39.046875)scale(0.7)" xlink:href="#DejaVuSans-8722"/>
       <use transform="translate(186.855469 39.046875)scale(0.7)" xlink:href="#DejaVuSans-51"/>
      </g>
     </g>
    </g>
    <g id="ytick_6">
     <g id="line2d_51">
      <defs>
       <path d="M 0 0 
L -2 0 
" id="me7d8bd7d4d" style="stroke:#555555;stroke-width:0.6;"/>
      </defs>
      <g>
       <use style="fill:#555555;stroke:#555555;stroke-width:0.6;" x="135" xlink:href="#me7d8bd7d4d" y="640.8"/>
      </g>
     </g>
    </g>
    <g id="ytick_7">
     <g id="line2d_52">
      <g>
       <use style="fill:#555555;stroke:#555555;stroke-width:0.6;" x="135" xlink:href="#me7d8bd7d4d" y="631.12688"/>
      </g>
     </g>
    </g>
    <g id="ytick_8">
     <g id="line2d_53">
      <g>
       <use style="fill:#555555;stroke:#555555;stroke-width:0.6;" x="135" xlink:href="#me7d8bd7d4d" y="622.948374"/>
      </g>
     </g>
    </g>
    <g id="ytick_9">
     <g id="line2d_54">
      <g>
       <use style="fill:#555555;stroke:#555555;stroke-width:0.6;" x="135" xlink:href="#me7d8bd7d4d" y="615.86383"/>
      </g>
     </g>
    </g>
    <g id="ytick_10">
     <g id="line2d_55">
      <g>
       <use style="fill:#555555;stroke:#555555;stroke-width:0.6;" x="135" xlink:href="#me7d8bd7d4d" y="609.614819"/>
      </g>
     </g>
    </g>
    <g id="ytick_11">
     <g id="line2d_56">
      <g>
       <use style="fill:#555555;stroke:#555555;stroke-width:0.6;" x="135" xlink:href="#me7d8bd7d4d" y="567.249775"/>
      </g>
     </g>
    </g>
    <g id="ytick_12">
     <g id="line2d_57">
      <g>
       <use style="fill:#555555;stroke:#555555;stroke-width:0.6;" x="135" xlink:href="#me7d8bd7d4d" y="545.737714"/>
      </g>
     </g>
    </g>
    <g id="ytick_13">
     <g id="line2d_58">
      <g>
       <use style="fill:#555555;stroke:#555555;stroke-width:0.6;" x="135" xlink:href="#me7d8bd7d4d" y="530.474663"/>
      </g>
     </g>
    </g>
    <g id="ytick_14">
     <g id="line2d_59">
      <g>
       <use style="fill:#555555;stroke:#555555;stroke-width:0.6;" x="135" xlink:href="#me7d8bd7d4d" y="518.635721"/>
      </g>
     </g>
    </g>
    <g id="ytick_15">
     <g id="line2d_60">
      <g>
       <use style="fill:#555555;stroke:#555555;stroke-width:0.6;" x="135" xlink:href="#me7d8bd7d4d" y="508.962601"/>
      </g>
     </g>
    </g>
    <g id="ytick_16">
     <g id="line2d_61">
      <g>
       <use style="fill:#555555;stroke:#555555;stroke-width:0.6;" x="135" xlink:href="#me7d8bd7d4d" y="500.784095"/>
      </g>
     </g>
    </g>
    <g id="ytick_17">
     <g id="line2d_62">
      <g>
       <use style="fill:#555555;stroke:#555555;stroke-width:0.6;" x="135" xlink:href="#me7d8bd7d4d" y="493.699551"/>
      </g>
     </g>
    </g>
    <g id="ytick_18">
     <g id="line2d_63">
      <g>
       <use style="fill:#555555;stroke:#555555;stroke-width:0.6;" x="135" xlink:href="#me7d8bd7d4d" y="487.45054"/>
      </g>
     </g>
    </g>
    <g id="ytick_19">
     <g id="line2d_64">
      <g>
       <use style="fill:#555555;stroke:#555555;stroke-width:0.6;" x="135" xlink:href="#me7d8bd7d4d" y="445.085497"/>
      </g>
     </g>
    </g>
    <g id="ytick_20">
     <g id="line2d_65">
      <g>
       <use style="fill:#555555;stroke:#555555;stroke-width:0.6;" x="135" xlink:href="#me7d8bd7d4d" y="423.573435"/>
      </g>
     </g>
    </g>
    <g id="ytick_21">
     <g id="line2d_66">
      <g>
       <use style="fill:#555555;stroke:#555555;stroke-width:0.6;" x="135" xlink:href="#me7d8bd7d4d" y="408.310384"/>
      </g>
     </g>
    </g>
    <g id="ytick_22">
     <g id="line2d_67">
      <g>
       <use style="fill:#555555;stroke:#555555;stroke-width:0.6;" x="135" xlink:href="#me7d8bd7d4d" y="396.471442"/>
      </g>
     </g>
    </g>
    <g id="ytick_23">
     <g id="line2d_68">
      <g>
       <use style="fill:#555555;stroke:#555555;stroke-width:0.6;" x="135" xlink:href="#me7d8bd7d4d" y="386.798323"/>
      </g>
     </g>
    </g>
    <g id="ytick_24">
     <g id="line2d_69">
      <g>
       <use style="fill:#555555;stroke:#555555;stroke-width:0.6;" x="135" xlink:href="#me7d8bd7d4d" y="378.619816"/>
      </g>
     </g>
    </g>
    <g id="ytick_25">
     <g id="line2d_70">
      <g>
       <use style="fill:#555555;stroke:#555555;stroke-width:0.6;" x="135" xlink:href="#me7d8bd7d4d" y="371.535272"/>
      </g>
     </g>
    </g>
    <g id="ytick_26">
     <g id="line2d_71">
      <g>
       <use style="fill:#555555;stroke:#555555;stroke-width:0.6;" x="135" xlink:href="#me7d8bd7d4d" y="365.286261"/>
      </g>
     </g>
    </g>
    <g id="ytick_27">
     <g id="line2d_72">
      <g>
       <use style="fill:#555555;stroke:#555555;stroke-width:0.6;" x="135" xlink:href="#me7d8bd7d4d" y="322.921218"/>
      </g>
     </g>
    </g>
    <g id="ytick_28">
     <g id="line2d_73">
      <g>
       <use style="fill:#555555;stroke:#555555;stroke-width:0.6;" x="135" xlink:href="#me7d8bd7d4d" y="301.409156"/>
      </g>
     </g>
    </g>
    <g id="ytick_29">
     <g id="line2d_74">
      <g>
       <use style="fill:#555555;stroke:#555555;stroke-width:0.6;" x="135" xlink:href="#me7d8bd7d4d" y="286.146105"/>
      </g>
     </g>
    </g>
    <g id="ytick_30">
     <g id="line2d_75">
      <g>
       <use style="fill:#555555;stroke:#555555;stroke-width:0.6;" x="135" xlink:href="#me7d8bd7d4d" y="274.307164"/>
      </g>
     </g>
    </g>
    <g id="ytick_31">
     <g id="line2d_76">
      <g>
       <use style="fill:#555555;stroke:#555555;stroke-width:0.6;" x="135" xlink:href="#me7d8bd7d4d" y="264.634044"/>
      </g>
     </g>
    </g>
    <g id="ytick_32">
     <g id="line2d_77">
      <g>
       <use style="fill:#555555;stroke:#555555;stroke-width:0.6;" x="135" xlink:href="#me7d8bd7d4d" y="256.455537"/>
      </g>
     </g>
    </g>
    <g id="ytick_33">
     <g id="line2d_78">
      <g>
       <use style="fill:#555555;stroke:#555555;stroke-width:0.6;" x="135" xlink:href="#me7d8bd7d4d" y="249.370993"/>
      </g>
     </g>
    </g>
    <g id="ytick_34">
     <g id="line2d_79">
      <g>
       <use style="fill:#555555;stroke:#555555;stroke-width:0.6;" x="135" xlink:href="#me7d8bd7d4d" y="243.121982"/>
      </g>
     </g>
    </g>
    <g id="ytick_35">
     <g id="line2d_80">
      <g>
       <use style="fill:#555555;stroke:#555555;stroke-width:0.6;" x="135" xlink:href="#me7d8bd7d4d" y="200.756939"/>
      </g>
     </g>
    </g>
    <g id="ytick_36">
     <g id="line2d_81">
      <g>
       <use style="fill:#555555;stroke:#555555;stroke-width:0.6;" x="135" xlink:href="#me7d8bd7d4d" y="179.244877"/>
      </g>
     </g>
    </g>
    <g id="ytick_37">
     <g id="line2d_82">
      <g>
       <use style="fill:#555555;stroke:#555555;stroke-width:0.6;" x="135" xlink:href="#me7d8bd7d4d" y="163.981827"/>
      </g>
     </g>
    </g>
    <g id="ytick_38">
     <g id="line2d_83">
      <g>
       <use style="fill:#555555;stroke:#555555;stroke-width:0.6;" x="135" xlink:href="#me7d8bd7d4d" y="152.142885"/>
      </g>
     </g>
    </g>
    <g id="ytick_39">
     <g id="line2d_84">
      <g>
       <use style="fill:#555555;stroke:#555555;stroke-width:0.6;" x="135" xlink:href="#me7d8bd7d4d" y="142.469765"/>
      </g>
     </g>
    </g>
    <g id="ytick_40">
     <g id="line2d_85">
      <g>
       <use style="fill:#555555;stroke:#555555;stroke-width:0.6;" x="135" xlink:href="#me7d8bd7d4d" y="134.291259"/>
      </g>
     </g>
    </g>
    <g id="ytick_41">
     <g id="line2d_86">
      <g>
       <use style="fill:#555555;stroke:#555555;stroke-width:0.6;" x="135" xlink:href="#me7d8bd7d4d" y="127.206714"/>
      </g>
     </g>
    </g>
    <g id="ytick_42">
     <g id="line2d_87">
      <g>
       <use style="fill:#555555;stroke:#555555;stroke-width:0.6;" x="135" xlink:href="#me7d8bd7d4d" y="120.957703"/>
      </g>
     </g>
    </g>
    <g id="text_11">
     <!-- infection rate / population -->
     <g style="fill:#555555;" transform="translate(98.004375 441.523125)rotate(-90)scale(0.12 -0.12)">
      <use xlink:href="#DejaVuSans-105"/>
      <use x="27.783203" xlink:href="#DejaVuSans-110"/>
      <use x="91.162109" xlink:href="#DejaVuSans-102"/>
      <use x="126.367188" xlink:href="#DejaVuSans-101"/>
      <use x="187.890625" xlink:href="#DejaVuSans-99"/>
      <use x="242.871094" xlink:href="#DejaVuSans-116"/>
      <use x="282.080078" xlink:href="#DejaVuSans-105"/>
      <use x="309.863281" xlink:href="#DejaVuSans-111"/>
      <use x="371.044922" xlink:href="#DejaVuSans-110"/>
      <use x="434.423828" xlink:href="#DejaVuSans-32"/>
      <use x="466.210938" xlink:href="#DejaVuSans-114"/>
      <use x="507.324219" xlink:href="#DejaVuSans-97"/>
      <use x="568.603516" xlink:href="#DejaVuSans-116"/>
      <use x="607.8125" xlink:href="#DejaVuSans-101"/>
      <use x="669.335938" xlink:href="#DejaVuSans-32"/>
      <use x="701.123047" xlink:href="#DejaVuSans-47"/>
      <use x="734.814453" xlink:href="#DejaVuSans-32"/>
      <use x="766.601562" xlink:href="#DejaVuSans-112"/>
      <use x="830.078125" xlink:href="#DejaVuSans-111"/>
      <use x="891.259766" xlink:href="#DejaVuSans-112"/>
      <use x="954.736328" xlink:href="#DejaVuSans-117"/>
      <use x="1018.115234" xlink:href="#DejaVuSans-108"/>
      <use x="1045.898438" xlink:href="#DejaVuSans-97"/>
      <use x="1107.177734" xlink:href="#DejaVuSans-116"/>
      <use x="1146.386719" xlink:href="#DejaVuSans-105"/>
      <use x="1174.169922" xlink:href="#DejaVuSans-111"/>
      <use x="1235.351562" xlink:href="#DejaVuSans-110"/>
     </g>
    </g>
   </g>
   <g id="line2d_88">
    <path clip-path="url(#pb8c8a8a095)" d="M 99.991864 721 
L 104.572698 699.386138 
L 116.472176 666.881593 
L 131.971639 638.973523 
L 147.898016 616.840052 
L 163.524339 599.024105 
L 177.826484 585.691306 
L 191.616931 574.805096 
L 204.395911 566.162061 
L 217.306681 558.835413 
L 230.670197 552.101618 
L 242.732347 546.1746 
L 257.624512 538.296885 
L 274.472253 528.254814 
L 292.311085 516.773489 
L 311.490917 503.850435 
L 330.786377 490.733707 
L 350.447767 477.614573 
L 369.802056 464.822619 
L 388.308745 453.221068 
L 407.813889 441.603182 
L 429.132813 429.115119 
L 449.32732 417.131173 
L 469.365719 405.218419 
L 488.375354 393.968911 
L 506.552845 383.378516 
L 523.210074 373.861937 
L 538.794867 365.472875 
L 552.987792 358.454356 
L 565.704615 352.577412 
L 576.642 348.252543 
L 586.580322 345.033652 
L 595.193319 343.153686 
L 602.639723 342.448292 
L 608.973567 343.043708 
L 614.396813 344.763834 
L 618.87938 347.641814 
L 622.676207 351.369155 
L 625.856419 356.24164 
L 628.611608 361.790785 
L 630.923306 367.997438 
L 632.900604 374.604411 
L 634.566439 381.612483 
L 635.963419 388.741336 
L 637.192719 395.993607 
L 638.247639 403.289883 
L 639.135295 410.885553 
L 639.891907 418.474676 
L 640.5548 426.093184 
L 641.14822 433.494988 
L 641.686409 440.523554 
L 642.222413 447.00509 
L 642.711858 452.776617 
L 643.128971 457.972883 
L 643.49797 462.767824 
L 643.818082 467.621322 
L 644.076826 473.103373 
" style="fill:none;stroke:#e24a33;stroke-linecap:square;stroke-width:1.5;"/>
   </g>
   <g id="line2d_89">
    <path clip-path="url(#pb8c8a8a095)" d="M -1 666.385818 
L 6.165559 662.169459 
L 45.049653 639.859012 
L 81.146017 619.487603 
L 117.098553 599.27244 
L 148.236362 581.446269 
L 179.512973 563.917666 
L 209.374658 547.122811 
L 234.900238 532.485842 
L 260.085422 518.560133 
L 283.303374 505.833635 
L 305.402801 494.025697 
L 326.074597 482.98237 
L 345.389603 472.929993 
L 363.99399 463.435195 
L 381.391737 454.45619 
L 397.838704 446.208935 
L 413.538609 438.406198 
L 428.442771 431.124564 
L 442.700452 424.222128 
L 456.011443 417.861973 
L 468.682743 411.990929 
L 480.606807 406.583242 
L 492.174636 401.438693 
L 503.605472 396.359371 
L 514.452674 391.525524 
L 525.169226 386.668275 
L 535.316495 381.982659 
L 545.101036 377.474571 
L 554.384295 373.251195 
L 563.05889 369.559905 
L 571.156401 366.495912 
L 578.614347 364.017534 
L 585.422824 362.343217 
L 591.724586 361.235874 
L 597.358251 360.932664 
L 602.599136 361.157005 
L 607.390957 361.863357 
L 611.971823 362.764449 
L 616.353012 363.656967 
L 620.727089 364.139474 
L 624.990746 364.247993 
L 629.13889 363.800003 
L 633.157503 363.068873 
L 636.992413 362.161871 
L 640.592546 361.488442 
L 644.003488 361.089449 
L 647.197879 361.229565 
" style="fill:none;stroke:#348abd;stroke-linecap:square;stroke-width:1.5;"/>
   </g>
   <g id="line2d_90">
    <path clip-path="url(#pb8c8a8a095)" d="M -1 667.417786 
L 6.88134 662.883366 
L 33.523946 647.115828 
L 53.625595 635.211002 
L 69.27846 626.650367 
L 83.964286 619.929681 
L 95.743465 617.14662 
L 107.866881 614.929523 
L 127.255298 608.191154 
L 148.096419 597.953851 
L 168.401115 585.49365 
L 189.698471 571.265452 
L 208.186941 558.61336 
L 226.924399 546.253834 
L 242.581001 536.36881 
L 258.788336 527.729417 
L 273.837 520.177539 
L 286.247071 514.360349 
L 298.043704 509.607015 
L 308.275225 505.876543 
L 316.628924 504.042452 
L 323.489025 503.470635 
L 328.77999 505.27036 
L 333.297655 508.671447 
L 336.351564 513.809789 
L 342.569442 516.709626 
L 349.829195 516.424454 
L 358.164297 511.608644 
L 373.384349 496.287106 
L 390.929288 477.189075 
L 410.887512 456.993425 
L 432.349944 437.290229 
L 454.380229 419.56871 
L 476.192622 403.385065 
L 497.142297 388.866116 
L 519.421314 375.031606 
L 542.567477 361.113045 
L 563.908874 348.325844 
L 584.222674 336.389917 
L 602.905303 325.6417 
L 619.79682 316.254505 
L 635.118889 308.18072 
L 649.045221 301.570933 
L 661.928728 296.168661 
L 672.817009 292.175548 
L 681.856965 289.829638 
L 691.473728 287.588541 
L 700.598301 285.607535 
L 709.479832 283.511231 
L 718.35196 280.913856 
L 727.17696 277.751215 
L 735.944914 273.698548 
L 744.564646 269.030002 
" style="fill:none;stroke:#988ed5;stroke-linecap:square;stroke-width:1.5;"/>
   </g>
   <g id="line2d_91">
    <path clip-path="url(#pb8c8a8a095)" d="M -1 670.376384 
L 42.695887 644.160855 
L 98.550012 610.411466 
L 148.338281 580.683052 
L 190.926877 555.280819 
L 232.010471 531.4483 
L 267.992222 510.726157 
L 307.500827 488.78051 
L 342.874268 468.652275 
L 375.261725 450.037519 
L 402.879778 433.979673 
L 428.520207 419.453431 
L 452.882168 406.152593 
L 473.265986 395.068113 
L 496.412071 383.467949 
L 518.941664 371.871964 
L 544.958499 358.086785 
L 568.217969 344.74611 
L 590.67494 331.63877 
L 611.135429 319.652212 
L 631.301307 307.987912 
L 651.345906 296.941696 
L 671.455133 285.940177 
L 690.182849 275.916852 
L 708.391301 266.000969 
L 725.07506 256.970947 
L 740.721904 248.619705 
L 754.649649 241.577809 
L 767.145944 235.842866 
L 778.074225 231.60279 
L 787.528229 228.709032 
L 795.93097 227.136345 
L 803.444287 226.556759 
L 810.23535 226.891471 
L 816.508735 227.647182 
L 822.281256 228.70722 
L 827.667607 229.740336 
L 832.566907 230.749104 
L 836.988826 231.927329 
L 841.033999 233.279824 
L 844.753742 234.852587 
L 848.242194 236.634471 
L 851.39228 238.713783 
L 854.299506 241.042554 
L 856.981104 243.448983 
L 859.385032 246.029077 
L 861.533235 248.92487 
L 863.438557 252.238722 
L 865.109659 256.150711 
L 866.522143 260.624445 
L 867.788252 265.639647 
L 868.995154 270.878075 
L 870.126034 276.006789 
L 871.197702 280.764109 
L 872.205142 284.971342 
L 873.140578 288.576993 
L 873.972257 291.706783 
L 874.722354 294.896119 
L 875.40847 298.52314 
" style="fill:none;stroke:#777777;stroke-linecap:square;stroke-width:1.5;"/>
   </g>
   <g id="line2d_92">
    <path clip-path="url(#pb8c8a8a095)" d="M -1 679.790525 
L 5.027425 675.039789 
L 52.539846 642.706005 
L 96.644372 614.197165 
L 136.857675 589.15878 
L 173.419988 567.029848 
L 204.636321 548.170904 
L 235.592293 530.527724 
L 264.123156 514.449898 
L 291.525234 499.408245 
L 321.225978 483.419038 
L 353.691617 465.660612 
L 386.109003 447.1912 
L 413.481389 430.69585 
L 448.769149 410.745129 
L 481.680455 391.339524 
L 511.915516 373.194566 
L 540.26492 356.378989 
L 565.767307 341.459805 
L 588.614408 328.401138 
L 610.212236 316.40447 
L 629.764417 306.290351 
L 648.744118 296.809155 
L 665.754365 288.459159 
L 682.595489 280.411913 
L 698.621829 272.706216 
L 714.682912 264.81389 
L 730.483593 256.885308 
L 745.75694 248.932298 
L 760.12977 241.434116 
L 773.598211 234.339294 
L 785.942079 228.180932 
L 797.30412 222.877504 
L 807.565546 218.706943 
L 816.952705 215.51706 
L 825.319933 213.360263 
L 832.925977 212.008845 
L 839.807498 211.414816 
L 846.005323 211.455177 
L 851.58201 212.106371 
L 856.595855 213.241837 
L 861.08138 214.910407 
L 865.120927 216.926757 
L 868.79537 219.311014 
L 872.153798 221.950297 
L 875.209448 224.773492 
L 877.979711 227.746217 
L 880.55625 230.720798 
L 883.045378 233.429166 
L 885.463333 235.757163 
L 887.747866 237.790629 
L 890.067384 239.15048 
L 892.287529 240.039529 
L 894.448779 240.453279 
L 896.536208 240.660211 
L 898.561017 240.881873 
L 900.5406 241.116042 
L 902.428264 241.384154 
L 904.263598 241.934833 
" style="fill:none;stroke:#fbc15e;stroke-linecap:square;stroke-width:1.5;"/>
   </g>
   <g id="line2d_93">
    <path clip-path="url(#pb8c8a8a095)" d="M -1 684.067982 
L 2.531178 682.754202 
L 19.529492 674.859911 
L 38.53025 663.995135 
L 62.154117 648.650089 
L 87.350852 631.142802 
L 111.190996 614.37234 
L 138.340512 596.367507 
L 165.853343 578.52992 
L 193.171303 561.463475 
L 220.148889 544.948577 
L 245.915184 529.520352 
L 270.91432 514.82587 
L 295.451625 500.561149 
L 320.606458 486.34896 
L 344.806904 472.59756 
L 373.393912 456.602866 
L 403.603525 439.18008 
L 434.00543 421.096273 
L 463.655583 403.176127 
L 492.422188 385.804805 
L 519.130172 369.762297 
L 543.822894 355.122122 
L 567.22275 341.812863 
L 589.175161 329.690121 
L 609.502842 318.744174 
L 628.37498 308.857103 
L 645.873078 299.985429 
L 662.257566 291.904468 
L 677.42177 284.640491 
L 691.690123 278.077281 
L 705.115561 272.109567 
L 717.706721 266.662536 
L 729.450684 261.745533 
L 740.378146 257.354091 
L 750.543623 253.509965 
L 759.960163 250.190365 
L 768.661642 247.456805 
L 776.758482 245.242996 
L 784.228428 243.548419 
L 791.133176 242.31536 
L 797.47754 241.542081 
L 803.356167 241.163375 
L 808.792561 241.138547 
L 813.847106 241.398696 
L 818.590871 241.882468 
L 823.085514 242.439878 
L 827.351014 243.009399 
L 831.427176 243.480403 
L 835.329267 243.850308 
L 839.07436 244.080747 
L 842.647973 244.234692 
L 846.107415 244.297962 
L 849.459792 244.299159 
L 852.70375 244.242699 
" style="fill:none;stroke:#8eba42;stroke-linecap:square;stroke-width:1.5;"/>
   </g>
   <g id="line2d_94">
    <path clip-path="url(#pb8c8a8a095)" d="M 18.613528 721 
L 35.904235 691.44533 
L 65.344085 657.472464 
L 95.26618 629.552154 
L 124.156217 606.163303 
L 152.388952 585.920741 
L 185.179112 565.274609 
L 218.083607 545.071711 
L 248.292639 526.671537 
L 277.300684 509.448241 
L 302.83245 494.257462 
L 326.198721 480.695698 
L 348.674849 468.175886 
L 368.550112 457.581023 
L 392.067976 445.61011 
L 415.601711 433.073977 
L 439.549976 419.821188 
L 463.583533 405.928358 
L 487.355446 391.872578 
L 511.417138 377.639465 
L 534.740463 363.693864 
L 557.838698 350.280024 
L 579.149623 337.897784 
L 598.18125 327.028677 
L 615.839545 317.383002 
L 631.932245 309.052761 
L 646.621226 302.023827 
L 660.515348 295.842207 
L 673.773679 290.340383 
L 686.609513 285.042718 
L 698.582438 280.011528 
L 709.923855 275.26732 
L 720.436998 270.913063 
L 730.048303 267.116114 
L 738.92669 263.984679 
L 747.117065 261.54817 
L 754.531664 259.935432 
L 761.246005 258.987802 
L 767.291597 258.781727 
L 772.850355 259.091262 
L 777.968881 259.788633 
L 782.659457 260.878903 
L 786.915705 262.342663 
L 790.737067 264.115351 
L 794.21488 266.152524 
L 797.383979 268.420922 
L 800.207495 271.119957 
L 802.772273 274.166011 
L 805.05372 277.586303 
L 807.113572 281.259168 
L 809.000155 285.044152 
L 810.778933 288.835554 
L 812.493799 292.401456 
L 814.093643 295.61848 
L 815.616467 298.476026 
L 817.083849 300.786807 
L 818.425078 302.940943 
L 819.671459 305.074887 
L 820.814278 307.477808 
" style="fill:none;stroke:#ffb5b8;stroke-linecap:square;stroke-width:1.5;"/>
   </g>
   <g id="line2d_95">
    <path clip-path="url(#pb8c8a8a095)" d="M 90.624306 721 
L 103.012813 678.458367 
L 134.480659 631.095584 
L 180.184573 588.177665 
L 223.993691 551.142317 
L 268.222301 518.995255 
L 305.472675 493.284888 
L 338.315995 471.825683 
L 368.855867 453.32491 
L 397.259317 436.925769 
L 424.405652 421.977962 
L 449.269452 408.40898 
L 471.74601 396.394231 
L 492.664309 385.331582 
L 511.07091 375.755851 
L 527.22322 367.786563 
L 541.151795 361.522141 
L 552.920612 357.126884 
L 562.708242 354.542196 
L 570.60475 353.839521 
L 576.961804 355.111322 
L 582.104338 358.06816 
L 586.022167 362.849892 
L 589.170832 369.175103 
L 591.655976 376.885162 
L 593.583984 385.827753 
L 595.116103 395.618894 
L 596.434158 405.89136 
L 597.632697 416.220292 
L 598.826487 425.293674 
L 599.897871 433.371146 
L 600.991808 439.441581 
L 602.144358 442.952158 
L 603.267212 444.576973 
L 604.384567 445.027304 
L 605.481665 444.906481 
L 606.538923 444.893941 
L 607.542327 444.762944 
L 608.511763 445.142332 
L 609.486052 445.898182 
L 610.43682 446.675952 
L 611.395251 447.353962 
L 612.417763 447.422147 
L 613.437054 447.036054 
L 614.428808 446.363222 
L 615.389567 445.691854 
L 616.315271 445.355199 
L 617.163378 445.579494 
L 617.948453 446.566975 
L 618.676037 448.556714 
L 619.316506 451.394221 
L 619.877092 455.020293 
L 620.365658 459.469306 
L 620.789421 464.748074 
L 621.150782 470.628509 
L 621.465911 477.131849 
L 621.755317 484.025389 
L 622.019975 490.793677 
L 622.261417 497.265849 
L 622.486589 503.211512 
L 622.694614 508.550963 
L 622.883626 513.279947 
L 623.050095 517.813055 
L 623.197512 522.583078 
L 623.327806 527.643164 
L 623.442517 533.052945 
L 623.546806 538.844423 
L 623.643305 544.79175 
" style="fill:none;stroke:#e24a33;stroke-linecap:square;stroke-width:1.5;"/>
   </g>
   <g id="patch_3">
    <path d="M 135 640.8 
L 135 86.4 
" style="fill:none;stroke:#ffffff;stroke-linecap:square;stroke-linejoin:miter;"/>
   </g>
   <g id="patch_4">
    <path d="M 972 640.8 
L 972 86.4 
" style="fill:none;stroke:#ffffff;stroke-linecap:square;stroke-linejoin:miter;"/>
   </g>
   <g id="patch_5">
    <path d="M 135 640.8 
L 972 640.8 
" style="fill:none;stroke:#ffffff;stroke-linecap:square;stroke-linejoin:miter;"/>
   </g>
   <g id="patch_6">
    <path d="M 135 86.4 
L 972 86.4 
" style="fill:none;stroke:#ffffff;stroke-linecap:square;stroke-linejoin:miter;"/>
   </g>
   <g id="text_12">
    <!-- [rate / population] vs [total cases / population] (log-log) -->
    <defs>
     <path d="M 8.59375 75.984375 
L 29.296875 75.984375 
L 29.296875 69 
L 17.578125 69 
L 17.578125 -6.203125 
L 29.296875 -6.203125 
L 29.296875 -13.1875 
L 8.59375 -13.1875 
z
" id="DejaVuSans-91"/>
     <path d="M 30.421875 75.984375 
L 30.421875 -13.1875 
L 9.71875 -13.1875 
L 9.71875 -6.203125 
L 21.390625 -6.203125 
L 21.390625 69 
L 9.71875 69 
L 9.71875 75.984375 
z
" id="DejaVuSans-93"/>
     <path d="M 2.984375 54.6875 
L 12.5 54.6875 
L 29.59375 8.796875 
L 46.6875 54.6875 
L 56.203125 54.6875 
L 35.6875 0 
L 23.484375 0 
z
" id="DejaVuSans-118"/>
     <path d="M 31 75.875 
Q 24.46875 64.65625 21.28125 53.65625 
Q 18.109375 42.671875 18.109375 31.390625 
Q 18.109375 20.125 21.3125 9.0625 
Q 24.515625 -2 31 -13.1875 
L 23.1875 -13.1875 
Q 15.875 -1.703125 12.234375 9.375 
Q 8.59375 20.453125 8.59375 31.390625 
Q 8.59375 42.28125 12.203125 53.3125 
Q 15.828125 64.359375 23.1875 75.875 
z
" id="DejaVuSans-40"/>
     <path d="M 45.40625 27.984375 
Q 45.40625 37.75 41.375 43.109375 
Q 37.359375 48.484375 30.078125 48.484375 
Q 22.859375 48.484375 18.828125 43.109375 
Q 14.796875 37.75 14.796875 27.984375 
Q 14.796875 18.265625 18.828125 12.890625 
Q 22.859375 7.515625 30.078125 7.515625 
Q 37.359375 7.515625 41.375 12.890625 
Q 45.40625 18.265625 45.40625 27.984375 
z
M 54.390625 6.78125 
Q 54.390625 -7.171875 48.1875 -13.984375 
Q 42 -20.796875 29.203125 -20.796875 
Q 24.46875 -20.796875 20.265625 -20.09375 
Q 16.0625 -19.390625 12.109375 -17.921875 
L 12.109375 -9.1875 
Q 16.0625 -11.328125 19.921875 -12.34375 
Q 23.78125 -13.375 27.78125 -13.375 
Q 36.625 -13.375 41.015625 -8.765625 
Q 45.40625 -4.15625 45.40625 5.171875 
L 45.40625 9.625 
Q 42.625 4.78125 38.28125 2.390625 
Q 33.9375 0 27.875 0 
Q 17.828125 0 11.671875 7.65625 
Q 5.515625 15.328125 5.515625 27.984375 
Q 5.515625 40.671875 11.671875 48.328125 
Q 17.828125 56 27.875 56 
Q 33.9375 56 38.28125 53.609375 
Q 42.625 51.21875 45.40625 46.390625 
L 45.40625 54.6875 
L 54.390625 54.6875 
z
" id="DejaVuSans-103"/>
     <path d="M 4.890625 31.390625 
L 31.203125 31.390625 
L 31.203125 23.390625 
L 4.890625 23.390625 
z
" id="DejaVuSans-45"/>
     <path d="M 8.015625 75.875 
L 15.828125 75.875 
Q 23.140625 64.359375 26.78125 53.3125 
Q 30.421875 42.28125 30.421875 31.390625 
Q 30.421875 20.453125 26.78125 9.375 
Q 23.140625 -1.703125 15.828125 -13.1875 
L 8.015625 -13.1875 
Q 14.5 -2 17.703125 9.0625 
Q 20.90625 20.125 20.90625 31.390625 
Q 20.90625 42.671875 17.703125 53.65625 
Q 14.5 64.65625 8.015625 75.875 
z
" id="DejaVuSans-41"/>
    </defs>
    <g transform="translate(352.90575 80.4)scale(0.144 -0.144)">
     <use xlink:href="#DejaVuSans-91"/>
     <use x="39.013672" xlink:href="#DejaVuSans-114"/>
     <use x="80.126953" xlink:href="#DejaVuSans-97"/>
     <use x="141.40625" xlink:href="#DejaVuSans-116"/>
     <use x="180.615234" xlink:href="#DejaVuSans-101"/>
     <use x="242.138672" xlink:href="#DejaVuSans-32"/>
     <use x="273.925781" xlink:href="#DejaVuSans-47"/>
     <use x="307.617188" xlink:href="#DejaVuSans-32"/>
     <use x="339.404297" xlink:href="#DejaVuSans-112"/>
     <use x="402.880859" xlink:href="#DejaVuSans-111"/>
     <use x="464.0625" xlink:href="#DejaVuSans-112"/>
     <use x="527.539062" xlink:href="#DejaVuSans-117"/>
     <use x="590.917969" xlink:href="#DejaVuSans-108"/>
     <use x="618.701172" xlink:href="#DejaVuSans-97"/>
     <use x="679.980469" xlink:href="#DejaVuSans-116"/>
     <use x="719.189453" xlink:href="#DejaVuSans-105"/>
     <use x="746.972656" xlink:href="#DejaVuSans-111"/>
     <use x="808.154297" xlink:href="#DejaVuSans-110"/>
     <use x="871.533203" xlink:href="#DejaVuSans-93"/>
     <use x="910.546875" xlink:href="#DejaVuSans-32"/>
     <use x="942.333984" xlink:href="#DejaVuSans-118"/>
     <use x="1001.513672" xlink:href="#DejaVuSans-115"/>
     <use x="1053.613281" xlink:href="#DejaVuSans-32"/>
     <use x="1085.400391" xlink:href="#DejaVuSans-91"/>
     <use x="1124.414062" xlink:href="#DejaVuSans-116"/>
     <use x="1163.623047" xlink:href="#DejaVuSans-111"/>
     <use x="1224.804688" xlink:href="#DejaVuSans-116"/>
     <use x="1264.013672" xlink:href="#DejaVuSans-97"/>
     <use x="1325.292969" xlink:href="#DejaVuSans-108"/>
     <use x="1353.076172" xlink:href="#DejaVuSans-32"/>
     <use x="1384.863281" xlink:href="#DejaVuSans-99"/>
     <use x="1439.84375" xlink:href="#DejaVuSans-97"/>
     <use x="1501.123047" xlink:href="#DejaVuSans-115"/>
     <use x="1553.222656" xlink:href="#DejaVuSans-101"/>
     <use x="1614.746094" xlink:href="#DejaVuSans-115"/>
     <use x="1666.845703" xlink:href="#DejaVuSans-32"/>
     <use x="1698.632812" xlink:href="#DejaVuSans-47"/>
     <use x="1732.324219" xlink:href="#DejaVuSans-32"/>
     <use x="1764.111328" xlink:href="#DejaVuSans-112"/>
     <use x="1827.587891" xlink:href="#DejaVuSans-111"/>
     <use x="1888.769531" xlink:href="#DejaVuSans-112"/>
     <use x="1952.246094" xlink:href="#DejaVuSans-117"/>
     <use x="2015.625" xlink:href="#DejaVuSans-108"/>
     <use x="2043.408203" xlink:href="#DejaVuSans-97"/>
     <use x="2104.6875" xlink:href="#DejaVuSans-116"/>
     <use x="2143.896484" xlink:href="#DejaVuSans-105"/>
     <use x="2171.679688" xlink:href="#DejaVuSans-111"/>
     <use x="2232.861328" xlink:href="#DejaVuSans-110"/>
     <use x="2296.240234" xlink:href="#DejaVuSans-93"/>
     <use x="2335.253906" xlink:href="#DejaVuSans-32"/>
     <use x="2367.041016" xlink:href="#DejaVuSans-40"/>
     <use x="2406.054688" xlink:href="#DejaVuSans-108"/>
     <use x="2433.837891" xlink:href="#DejaVuSans-111"/>
     <use x="2495.019531" xlink:href="#DejaVuSans-103"/>
     <use x="2558.496094" xlink:href="#DejaVuSans-45"/>
     <use x="2594.580078" xlink:href="#DejaVuSans-108"/>
     <use x="2622.363281" xlink:href="#DejaVuSans-111"/>
     <use x="2683.544922" xlink:href="#DejaVuSans-103"/>
     <use x="2747.021484" xlink:href="#DejaVuSans-41"/>
    </g>
   </g>
   <g id="legend_1">
    <g id="patch_7">
     <path d="M 868.523438 211.825 
L 965 211.825 
Q 967 211.825 967 209.825 
L 967 93.4 
Q 967 91.4 965 91.4 
L 868.523438 91.4 
Q 866.523438 91.4 866.523438 93.4 
L 866.523438 209.825 
Q 866.523438 211.825 868.523438 211.825 
z
" style="fill:#e5e5e5;opacity:0.8;stroke:#cccccc;stroke-linejoin:miter;stroke-width:0.5;"/>
    </g>
    <g id="line2d_96">
     <path d="M 870.523438 99.498437 
L 890.523438 99.498437 
" style="fill:none;stroke:#e24a33;stroke-linecap:square;stroke-width:1.5;"/>
    </g>
    <g id="line2d_97"/>
    <g id="text_13">
     <!-- Australia -->
     <defs>
      <path d="M 34.1875 63.1875 
L 20.796875 26.90625 
L 47.609375 26.90625 
z
M 28.609375 72.90625 
L 39.796875 72.90625 
L 67.578125 0 
L 57.328125 0 
L 50.6875 18.703125 
L 17.828125 18.703125 
L 11.1875 0 
L 0.78125 0 
z
" id="DejaVuSans-65"/>
     </defs>
     <g transform="translate(898.523438 102.998437)scale(0.1 -0.1)">
      <use xlink:href="#DejaVuSans-65"/>
      <use x="68.408203" xlink:href="#DejaVuSans-117"/>
      <use x="131.787109" xlink:href="#DejaVuSans-115"/>
      <use x="183.886719" xlink:href="#DejaVuSans-116"/>
      <use x="223.095703" xlink:href="#DejaVuSans-114"/>
      <use x="264.208984" xlink:href="#DejaVuSans-97"/>
      <use x="325.488281" xlink:href="#DejaVuSans-108"/>
      <use x="353.271484" xlink:href="#DejaVuSans-105"/>
      <use x="381.054688" xlink:href="#DejaVuSans-97"/>
     </g>
    </g>
    <g id="line2d_98">
     <path d="M 870.523438 114.176562 
L 890.523438 114.176562 
" style="fill:none;stroke:#348abd;stroke-linecap:square;stroke-width:1.5;"/>
    </g>
    <g id="line2d_99"/>
    <g id="text_14">
     <!-- Poland -->
     <defs>
      <path d="M 19.671875 64.796875 
L 19.671875 37.40625 
L 32.078125 37.40625 
Q 38.96875 37.40625 42.71875 40.96875 
Q 46.484375 44.53125 46.484375 51.125 
Q 46.484375 57.671875 42.71875 61.234375 
Q 38.96875 64.796875 32.078125 64.796875 
z
M 9.8125 72.90625 
L 32.078125 72.90625 
Q 44.34375 72.90625 50.609375 67.359375 
Q 56.890625 61.8125 56.890625 51.125 
Q 56.890625 40.328125 50.609375 34.8125 
Q 44.34375 29.296875 32.078125 29.296875 
L 19.671875 29.296875 
L 19.671875 0 
L 9.8125 0 
z
" id="DejaVuSans-80"/>
     </defs>
     <g transform="translate(898.523438 117.676562)scale(0.1 -0.1)">
      <use xlink:href="#DejaVuSans-80"/>
      <use x="60.255859" xlink:href="#DejaVuSans-111"/>
      <use x="121.4375" xlink:href="#DejaVuSans-108"/>
      <use x="149.220703" xlink:href="#DejaVuSans-97"/>
      <use x="210.5" xlink:href="#DejaVuSans-110"/>
      <use x="273.878906" xlink:href="#DejaVuSans-100"/>
     </g>
    </g>
    <g id="line2d_100">
     <path d="M 870.523438 128.854687 
L 890.523438 128.854687 
" style="fill:none;stroke:#988ed5;stroke-linecap:square;stroke-width:1.5;"/>
    </g>
    <g id="line2d_101"/>
    <g id="text_15">
     <!-- Belarus -->
     <defs>
      <path d="M 19.671875 34.8125 
L 19.671875 8.109375 
L 35.5 8.109375 
Q 43.453125 8.109375 47.28125 11.40625 
Q 51.125 14.703125 51.125 21.484375 
Q 51.125 28.328125 47.28125 31.5625 
Q 43.453125 34.8125 35.5 34.8125 
z
M 19.671875 64.796875 
L 19.671875 42.828125 
L 34.28125 42.828125 
Q 41.5 42.828125 45.03125 45.53125 
Q 48.578125 48.25 48.578125 53.8125 
Q 48.578125 59.328125 45.03125 62.0625 
Q 41.5 64.796875 34.28125 64.796875 
z
M 9.8125 72.90625 
L 35.015625 72.90625 
Q 46.296875 72.90625 52.390625 68.21875 
Q 58.5 63.53125 58.5 54.890625 
Q 58.5 48.1875 55.375 44.234375 
Q 52.25 40.28125 46.1875 39.3125 
Q 53.46875 37.75 57.5 32.78125 
Q 61.53125 27.828125 61.53125 20.40625 
Q 61.53125 10.640625 54.890625 5.3125 
Q 48.25 0 35.984375 0 
L 9.8125 0 
z
" id="DejaVuSans-66"/>
     </defs>
     <g transform="translate(898.523438 132.354687)scale(0.1 -0.1)">
      <use xlink:href="#DejaVuSans-66"/>
      <use x="68.603516" xlink:href="#DejaVuSans-101"/>
      <use x="130.126953" xlink:href="#DejaVuSans-108"/>
      <use x="157.910156" xlink:href="#DejaVuSans-97"/>
      <use x="219.189453" xlink:href="#DejaVuSans-114"/>
      <use x="260.302734" xlink:href="#DejaVuSans-117"/>
      <use x="323.681641" xlink:href="#DejaVuSans-115"/>
     </g>
    </g>
    <g id="line2d_102">
     <path d="M 870.523438 143.532812 
L 890.523438 143.532812 
" style="fill:none;stroke:#777777;stroke-linecap:square;stroke-width:1.5;"/>
    </g>
    <g id="line2d_103"/>
    <g id="text_16">
     <!-- Switzerland -->
     <defs>
      <path d="M 53.515625 70.515625 
L 53.515625 60.890625 
Q 47.90625 63.578125 42.921875 64.890625 
Q 37.9375 66.21875 33.296875 66.21875 
Q 25.25 66.21875 20.875 63.09375 
Q 16.5 59.96875 16.5 54.203125 
Q 16.5 49.359375 19.40625 46.890625 
Q 22.3125 44.4375 30.421875 42.921875 
L 36.375 41.703125 
Q 47.40625 39.59375 52.65625 34.296875 
Q 57.90625 29 57.90625 20.125 
Q 57.90625 9.515625 50.796875 4.046875 
Q 43.703125 -1.421875 29.984375 -1.421875 
Q 24.8125 -1.421875 18.96875 -0.25 
Q 13.140625 0.921875 6.890625 3.21875 
L 6.890625 13.375 
Q 12.890625 10.015625 18.65625 8.296875 
Q 24.421875 6.59375 29.984375 6.59375 
Q 38.421875 6.59375 43.015625 9.90625 
Q 47.609375 13.234375 47.609375 19.390625 
Q 47.609375 24.75 44.3125 27.78125 
Q 41.015625 30.8125 33.5 32.328125 
L 27.484375 33.5 
Q 16.453125 35.6875 11.515625 40.375 
Q 6.59375 45.0625 6.59375 53.421875 
Q 6.59375 63.09375 13.40625 68.65625 
Q 20.21875 74.21875 32.171875 74.21875 
Q 37.3125 74.21875 42.625 73.28125 
Q 47.953125 72.359375 53.515625 70.515625 
z
" id="DejaVuSans-83"/>
      <path d="M 4.203125 54.6875 
L 13.1875 54.6875 
L 24.421875 12.015625 
L 35.59375 54.6875 
L 46.1875 54.6875 
L 57.421875 12.015625 
L 68.609375 54.6875 
L 77.59375 54.6875 
L 63.28125 0 
L 52.6875 0 
L 40.921875 44.828125 
L 29.109375 0 
L 18.5 0 
z
" id="DejaVuSans-119"/>
      <path d="M 5.515625 54.6875 
L 48.1875 54.6875 
L 48.1875 46.484375 
L 14.40625 7.171875 
L 48.1875 7.171875 
L 48.1875 0 
L 4.296875 0 
L 4.296875 8.203125 
L 38.09375 47.515625 
L 5.515625 47.515625 
z
" id="DejaVuSans-122"/>
     </defs>
     <g transform="translate(898.523438 147.032812)scale(0.1 -0.1)">
      <use xlink:href="#DejaVuSans-83"/>
      <use x="63.476562" xlink:href="#DejaVuSans-119"/>
      <use x="145.263672" xlink:href="#DejaVuSans-105"/>
      <use x="173.046875" xlink:href="#DejaVuSans-116"/>
      <use x="212.255859" xlink:href="#DejaVuSans-122"/>
      <use x="264.746094" xlink:href="#DejaVuSans-101"/>
      <use x="326.269531" xlink:href="#DejaVuSans-114"/>
      <use x="367.382812" xlink:href="#DejaVuSans-108"/>
      <use x="395.166016" xlink:href="#DejaVuSans-97"/>
      <use x="456.445312" xlink:href="#DejaVuSans-110"/>
      <use x="519.824219" xlink:href="#DejaVuSans-100"/>
     </g>
    </g>
    <g id="line2d_104">
     <path d="M 870.523438 158.210937 
L 890.523438 158.210937 
" style="fill:none;stroke:#fbc15e;stroke-linecap:square;stroke-width:1.5;"/>
    </g>
    <g id="line2d_105"/>
    <g id="text_17">
     <!-- Spain -->
     <g transform="translate(898.523438 161.710937)scale(0.1 -0.1)">
      <use xlink:href="#DejaVuSans-83"/>
      <use x="63.476562" xlink:href="#DejaVuSans-112"/>
      <use x="126.953125" xlink:href="#DejaVuSans-97"/>
      <use x="188.232422" xlink:href="#DejaVuSans-105"/>
      <use x="216.015625" xlink:href="#DejaVuSans-110"/>
     </g>
    </g>
    <g id="line2d_106">
     <path d="M 870.523438 172.889062 
L 890.523438 172.889062 
" style="fill:none;stroke:#8eba42;stroke-linecap:square;stroke-width:1.5;"/>
    </g>
    <g id="line2d_107"/>
    <g id="text_18">
     <!-- US -->
     <defs>
      <path d="M 8.6875 72.90625 
L 18.609375 72.90625 
L 18.609375 28.609375 
Q 18.609375 16.890625 22.84375 11.734375 
Q 27.09375 6.59375 36.625 6.59375 
Q 46.09375 6.59375 50.34375 11.734375 
Q 54.59375 16.890625 54.59375 28.609375 
L 54.59375 72.90625 
L 64.5 72.90625 
L 64.5 27.390625 
Q 64.5 13.140625 57.4375 5.859375 
Q 50.390625 -1.421875 36.625 -1.421875 
Q 22.796875 -1.421875 15.734375 5.859375 
Q 8.6875 13.140625 8.6875 27.390625 
z
" id="DejaVuSans-85"/>
     </defs>
     <g transform="translate(898.523438 176.389062)scale(0.1 -0.1)">
      <use xlink:href="#DejaVuSans-85"/>
      <use x="73.193359" xlink:href="#DejaVuSans-83"/>
     </g>
    </g>
    <g id="line2d_108">
     <path d="M 870.523438 187.567187 
L 890.523438 187.567187 
" style="fill:none;stroke:#ffb5b8;stroke-linecap:square;stroke-width:1.5;"/>
    </g>
    <g id="line2d_109"/>
    <g id="text_19">
     <!-- Germany -->
     <defs>
      <path d="M 59.515625 10.40625 
L 59.515625 29.984375 
L 43.40625 29.984375 
L 43.40625 38.09375 
L 69.28125 38.09375 
L 69.28125 6.78125 
Q 63.578125 2.734375 56.6875 0.65625 
Q 49.8125 -1.421875 42 -1.421875 
Q 24.90625 -1.421875 15.25 8.5625 
Q 5.609375 18.5625 5.609375 36.375 
Q 5.609375 54.25 15.25 64.234375 
Q 24.90625 74.21875 42 74.21875 
Q 49.125 74.21875 55.546875 72.453125 
Q 61.96875 70.703125 67.390625 67.28125 
L 67.390625 56.78125 
Q 61.921875 61.421875 55.765625 63.765625 
Q 49.609375 66.109375 42.828125 66.109375 
Q 29.4375 66.109375 22.71875 58.640625 
Q 16.015625 51.171875 16.015625 36.375 
Q 16.015625 21.625 22.71875 14.15625 
Q 29.4375 6.6875 42.828125 6.6875 
Q 48.046875 6.6875 52.140625 7.59375 
Q 56.25 8.5 59.515625 10.40625 
z
" id="DejaVuSans-71"/>
      <path d="M 32.171875 -5.078125 
Q 28.375 -14.84375 24.75 -17.8125 
Q 21.140625 -20.796875 15.09375 -20.796875 
L 7.90625 -20.796875 
L 7.90625 -13.28125 
L 13.1875 -13.28125 
Q 16.890625 -13.28125 18.9375 -11.515625 
Q 21 -9.765625 23.484375 -3.21875 
L 25.09375 0.875 
L 2.984375 54.6875 
L 12.5 54.6875 
L 29.59375 11.921875 
L 46.6875 54.6875 
L 56.203125 54.6875 
z
" id="DejaVuSans-121"/>
     </defs>
     <g transform="translate(898.523438 191.067187)scale(0.1 -0.1)">
      <use xlink:href="#DejaVuSans-71"/>
      <use x="77.490234" xlink:href="#DejaVuSans-101"/>
      <use x="139.013672" xlink:href="#DejaVuSans-114"/>
      <use x="180.111328" xlink:href="#DejaVuSans-109"/>
      <use x="277.523438" xlink:href="#DejaVuSans-97"/>
      <use x="338.802734" xlink:href="#DejaVuSans-110"/>
      <use x="402.181641" xlink:href="#DejaVuSans-121"/>
     </g>
    </g>
    <g id="line2d_110">
     <path d="M 870.523438 202.245312 
L 890.523438 202.245312 
" style="fill:none;stroke:#e24a33;stroke-linecap:square;stroke-width:1.5;"/>
    </g>
    <g id="line2d_111"/>
    <g id="text_20">
     <!-- Korea, South -->
     <defs>
      <path d="M 9.8125 72.90625 
L 19.671875 72.90625 
L 19.671875 42.09375 
L 52.390625 72.90625 
L 65.09375 72.90625 
L 28.90625 38.921875 
L 67.671875 0 
L 54.6875 0 
L 19.671875 35.109375 
L 19.671875 0 
L 9.8125 0 
z
" id="DejaVuSans-75"/>
      <path d="M 11.71875 12.40625 
L 22.015625 12.40625 
L 22.015625 4 
L 14.015625 -11.625 
L 7.71875 -11.625 
L 11.71875 4 
z
" id="DejaVuSans-44"/>
      <path d="M 54.890625 33.015625 
L 54.890625 0 
L 45.90625 0 
L 45.90625 32.71875 
Q 45.90625 40.484375 42.875 44.328125 
Q 39.84375 48.1875 33.796875 48.1875 
Q 26.515625 48.1875 22.3125 43.546875 
Q 18.109375 38.921875 18.109375 30.90625 
L 18.109375 0 
L 9.078125 0 
L 9.078125 75.984375 
L 18.109375 75.984375 
L 18.109375 46.1875 
Q 21.34375 51.125 25.703125 53.5625 
Q 30.078125 56 35.796875 56 
Q 45.21875 56 50.046875 50.171875 
Q 54.890625 44.34375 54.890625 33.015625 
z
" id="DejaVuSans-104"/>
     </defs>
     <g transform="translate(898.523438 205.745312)scale(0.1 -0.1)">
      <use xlink:href="#DejaVuSans-75"/>
      <use x="65.498047" xlink:href="#DejaVuSans-111"/>
      <use x="126.679688" xlink:href="#DejaVuSans-114"/>
      <use x="167.761719" xlink:href="#DejaVuSans-101"/>
      <use x="229.285156" xlink:href="#DejaVuSans-97"/>
      <use x="290.564453" xlink:href="#DejaVuSans-44"/>
      <use x="322.351562" xlink:href="#DejaVuSans-32"/>
      <use x="354.138672" xlink:href="#DejaVuSans-83"/>
      <use x="417.615234" xlink:href="#DejaVuSans-111"/>
      <use x="478.796875" xlink:href="#DejaVuSans-117"/>
      <use x="542.175781" xlink:href="#DejaVuSans-116"/>
      <use x="581.384766" xlink:href="#DejaVuSans-104"/>
     </g>
    </g>
   </g>
  </g>
 </g>
 <defs>
  <clipPath id="pb8c8a8a095">
   <rect height="554.4" width="837" x="135" y="86.4"/>
  </clipPath>
 </defs>
</svg>
